{"glyphs":{"0":{"ha":957,"x_min":0,"x_max":0,"o":"m 479 -17 b 875 478 711 -17 875 188 b 479 971 875 767 711 971 b 82 478 246 971 82 767 b 479 -17 82 188 246 -17 z m 479 83 b 192 478 311 83 192 247 b 479 871 192 708 311 871 b 765 478 647 871 765 708 b 479 83 765 247 647 83 z "},"1":{"ha":490,"x_min":0,"x_max":0,"o":"m 250 0 l 358 0 l 358 954 l 271 954 l 36 794 l 83 714 l 250 822 z "},"2":{"ha":818,"x_min":0,"x_max":0,"o":"m 68 0 l 726 0 l 726 103 l 242 103 l 492 319 b 717 690 653 458 717 561 b 413 971 717 861 578 971 b 76 788 263 971 156 900 l 153 725 b 408 874 218 814 297 874 b 607 689 510 874 607 806 b 417 388 607 594 551 503 l 68 90 z "},"3":{"ha":814,"x_min":0,"x_max":0,"o":"m 403 -17 b 735 258 601 -17 735 99 b 529 489 735 396 626 467 b 714 713 628 518 714 590 b 399 971 714 865 581 971 b 72 803 250 971 144 899 l 144 738 b 393 872 213 819 288 872 b 604 700 513 872 604 800 b 381 532 604 592 508 531 l 278 533 l 278 433 l 379 433 b 625 264 529 433 625 376 b 403 82 625 156 536 82 b 131 218 286 82 193 138 l 56 147 b 403 -17 125 56 246 -17 z "},"4":{"ha":865,"x_min":0,"x_max":0,"o":"m 546 0 l 654 0 l 654 232 l 797 232 l 797 331 l 654 331 l 654 954 l 529 954 l 56 322 l 69 232 l 546 232 z m 179 331 l 546 824 l 546 331 z "},"5":{"ha":832,"x_min":0,"x_max":0,"o":"m 414 -17 b 753 297 610 -17 753 108 b 438 594 753 486 610 594 b 233 531 350 594 285 565 l 243 851 l 701 851 l 701 954 l 138 954 l 124 464 l 203 425 b 415 499 263 469 333 499 b 643 293 549 499 643 415 b 418 81 643 172 550 81 b 149 214 313 81 222 133 l 78 135 b 414 -17 156 46 267 -17 z "},"6":{"ha":865,"x_min":0,"x_max":0,"o":"m 463 596 b 193 450 350 596 251 542 l 193 463 b 467 872 193 692 314 872 b 681 772 558 872 621 831 l 740 857 b 469 971 669 925 586 971 b 83 463 253 971 83 747 b 446 -17 83 193 188 -17 b 782 299 644 -17 782 122 b 463 596 782 488 636 596 z m 444 76 b 206 325 311 76 233 181 b 443 503 229 431 322 503 b 672 293 571 503 672 424 b 444 76 672 188 588 76 z "},"7":{"ha":833,"x_min":0,"x_max":0,"o":"m 192 0 l 317 0 l 728 872 l 728 954 l 82 954 l 82 851 l 599 851 z "},"8":{"ha":842,"x_min":0,"x_max":0,"o":"m 421 -17 b 769 250 617 -17 769 88 b 560 493 769 369 675 454 b 746 717 658 529 746 600 b 421 971 746 874 592 971 b 97 718 256 971 97 876 b 283 493 97 608 175 535 b 72 250 167 456 72 369 b 421 -17 72 89 224 -17 z m 421 536 b 207 707 331 542 207 596 b 421 872 207 803 301 872 b 636 707 540 872 636 803 b 421 536 636 599 514 542 z m 421 82 b 182 257 289 82 182 153 b 421 442 182 372 322 439 b 660 257 521 439 660 372 b 421 82 660 153 553 82 z "},"9":{"ha":865,"x_min":0,"x_max":0,"o":"m 419 971 b 83 656 221 971 83 832 b 403 358 83 467 229 358 b 672 504 515 358 614 413 l 672 492 b 399 82 672 263 551 82 b 185 182 307 82 244 124 l 125 97 b 396 -17 196 29 279 -17 b 782 492 613 -17 782 207 b 419 971 782 761 678 971 z m 422 451 b 193 661 294 451 193 531 b 421 878 193 767 278 878 b 660 629 554 878 632 774 b 422 451 636 524 543 451 z "},"A":{"ha":1049,"x_min":0,"x_max":0,"o":"m 886 0 l 1004 0 l 583 954 l 465 954 l 44 0 l 163 0 l 258 217 l 790 217 z m 303 319 l 525 821 l 746 319 z "},"Á":{"ha":1049,"x_min":0,"x_max":0,"o":"m 760 1211 l 650 1236 l 482 1036 l 563 1036 z m 886 0 l 1004 0 l 583 954 l 465 954 l 44 0 l 163 0 l 258 217 l 790 217 z m 303 319 l 525 821 l 746 319 z "},"Ă":{"ha":1049,"x_min":0,"x_max":0,"o":"m 726 1138 l 661 1203 b 524 1144 624 1167 572 1144 b 386 1203 475 1144 424 1167 l 321 1138 b 524 1054 378 1082 450 1054 b 726 1138 597 1054 671 1082 z m 886 0 l 1004 0 l 583 954 l 465 954 l 44 0 l 163 0 l 258 217 l 790 217 z m 303 319 l 525 821 l 746 319 z "},"Â":{"ha":1049,"x_min":0,"x_max":0,"o":"m 524 1156 l 633 1036 l 714 1036 l 572 1226 l 475 1226 l 336 1036 l 415 1036 z m 886 0 l 1004 0 l 583 954 l 465 954 l 44 0 l 163 0 l 258 217 l 790 217 z m 303 319 l 525 821 l 746 319 z "},"Ä":{"ha":1049,"x_min":0,"x_max":0,"o":"m 390 1065 b 454 1129 425 1065 454 1094 b 390 1193 454 1163 425 1193 b 326 1129 354 1193 326 1163 b 390 1065 326 1094 354 1065 z m 657 1065 b 721 1129 692 1065 721 1094 b 657 1193 721 1163 692 1193 b 593 1129 621 1193 593 1163 b 657 1065 593 1094 621 1065 z m 886 0 l 1004 0 l 583 954 l 465 954 l 44 0 l 163 0 l 258 217 l 790 217 z m 303 319 l 525 821 l 746 319 z "},"À":{"ha":1049,"x_min":0,"x_max":0,"o":"m 567 1036 l 399 1236 l 289 1211 l 486 1036 z m 886 0 l 1004 0 l 583 954 l 465 954 l 44 0 l 163 0 l 258 217 l 790 217 z m 303 319 l 525 821 l 746 319 z "},"Ā":{"ha":1049,"x_min":0,"x_max":0,"o":"m 739 1138 l 308 1138 l 308 1061 l 739 1061 z m 886 0 l 1004 0 l 583 954 l 465 954 l 44 0 l 163 0 l 258 217 l 790 217 z m 303 319 l 525 821 l 746 319 z "},"Ą":{"ha":1049,"x_min":0,"x_max":0,"o":"m 1069 -132 b 1004 -158 1056 -147 1033 -158 b 924 -79 953 -158 924 -128 b 1004 0 924 -33 957 0 l 583 954 l 465 954 l 44 0 l 163 0 l 258 217 l 790 217 l 885 3 b 846 -92 861 -21 846 -54 b 997 -240 846 -185 908 -240 b 1114 -200 1042 -240 1082 -226 z m 303 319 l 525 821 l 746 319 z "},"Å":{"ha":1049,"x_min":0,"x_max":0,"o":"m 524 1054 b 667 1197 603 1054 667 1118 b 524 1340 667 1276 603 1340 b 381 1197 444 1340 381 1276 b 524 1054 381 1118 444 1054 z m 524 1279 b 606 1197 568 1279 606 1242 b 524 1115 606 1153 568 1115 b 442 1197 479 1115 442 1153 b 524 1279 442 1242 479 1279 z m 886 0 l 1004 0 l 583 954 l 465 954 l 44 0 l 163 0 l 258 217 l 790 217 z m 303 319 l 525 821 l 746 319 z "},"Ã":{"ha":1049,"x_min":0,"x_max":0,"o":"m 433 1126 b 613 1035 490 1126 531 1035 b 746 1200 689 1035 732 1094 l 682 1210 b 613 1115 671 1143 649 1115 b 433 1207 556 1115 515 1207 b 300 1042 357 1207 314 1147 l 364 1032 b 433 1126 375 1099 397 1126 z m 886 0 l 1004 0 l 583 954 l 465 954 l 44 0 l 163 0 l 258 217 l 790 217 z m 303 319 l 525 821 l 746 319 z "},"Æ":{"ha":1422,"x_min":0,"x_max":0,"o":"m 1346 851 l 1346 954 l 594 954 l 44 0 l 169 0 l 294 217 l 661 217 l 661 0 l 1346 0 l 1346 103 l 771 103 l 771 435 l 1289 435 l 1289 538 l 771 538 l 771 851 z m 354 319 l 661 851 l 661 319 z "},"B":{"ha":947,"x_min":0,"x_max":0,"o":"m 131 0 l 585 0 b 868 261 750 0 868 108 b 694 507 868 365 804 451 b 831 717 781 557 831 615 b 568 954 831 856 722 954 l 131 954 z m 239 550 l 239 856 l 540 856 b 721 703 646 856 721 792 b 540 550 721 614 646 550 z m 239 99 l 239 451 l 557 451 b 758 275 675 451 758 378 b 557 99 758 172 675 99 z "},"C":{"ha":944,"x_min":0,"x_max":0,"o":"m 561 -17 b 904 129 693 -17 815 40 l 831 204 b 561 83 761 131 665 83 b 182 478 356 83 182 264 b 561 871 182 690 356 871 b 831 750 665 871 761 824 l 904 825 b 561 971 815 915 693 971 b 72 478 297 971 72 746 b 561 -17 72 210 297 -17 z "},"Ć":{"ha":944,"x_min":0,"x_max":0,"o":"m 422 1036 l 503 1036 l 700 1211 l 590 1236 z m 561 -17 b 904 129 693 -17 815 40 l 831 204 b 561 83 761 131 665 83 b 182 478 356 83 182 264 b 561 871 182 690 356 871 b 831 750 665 871 761 824 l 904 825 b 561 971 815 915 693 971 b 72 478 297 971 72 746 b 561 -17 72 210 297 -17 z "},"Č":{"ha":944,"x_min":0,"x_max":0,"o":"m 485 1036 l 582 1036 l 724 1226 l 643 1226 l 533 1107 l 425 1226 l 346 1226 z m 561 -17 b 904 129 693 -17 815 40 l 831 204 b 561 83 761 131 665 83 b 182 478 356 83 182 264 b 561 871 182 690 356 871 b 831 750 665 871 761 824 l 904 825 b 561 971 815 915 693 971 b 72 478 297 971 72 746 b 561 -17 72 210 297 -17 z "},"Ç":{"ha":944,"x_min":0,"x_max":0,"o":"m 904 129 l 831 204 b 561 83 761 131 665 83 b 182 478 356 83 182 264 b 561 871 182 690 356 871 b 831 750 665 871 761 824 l 904 825 b 561 971 815 915 693 971 b 72 478 297 971 72 746 b 514 -14 72 226 271 11 l 481 -93 l 503 -117 b 550 -101 515 -107 533 -101 b 604 -149 588 -101 604 -122 b 535 -201 604 -179 575 -201 b 444 -169 504 -201 472 -192 l 418 -228 b 540 -267 446 -250 492 -267 b 676 -154 617 -267 676 -222 b 581 -62 676 -100 636 -62 b 565 -64 575 -62 571 -62 l 585 -17 b 904 129 708 -10 821 46 z "},"D":{"ha":1058,"x_min":0,"x_max":0,"o":"m 131 0 l 453 0 b 969 478 756 0 969 199 b 453 954 969 757 756 954 l 131 954 z m 239 99 l 239 856 l 453 856 b 860 478 692 856 860 699 b 453 99 860 256 692 99 z "},"Ð":{"ha":1082,"x_min":0,"x_max":0,"o":"m 476 954 l 154 954 l 154 538 l 58 538 l 58 435 l 154 435 l 154 0 l 476 0 b 993 478 779 0 993 199 b 476 954 993 757 779 954 z m 476 99 l 263 99 l 263 435 l 542 435 l 543 538 l 263 538 l 263 856 l 476 856 b 883 478 715 856 883 699 b 476 99 883 256 715 99 z "},"Ď":{"ha":1058,"x_min":0,"x_max":0,"o":"m 404 1036 l 501 1036 l 643 1226 l 563 1226 l 453 1107 l 344 1226 l 265 1226 z m 131 0 l 453 0 b 969 478 756 0 969 199 b 453 954 969 757 756 954 l 131 954 z m 239 99 l 239 856 l 453 856 b 860 478 692 856 860 699 b 453 99 860 256 692 99 z "},"Đ":{"ha":1082,"x_min":0,"x_max":0,"o":"m 476 954 l 154 954 l 154 538 l 58 538 l 58 435 l 154 435 l 154 0 l 476 0 b 993 478 779 0 993 199 b 476 954 993 757 779 954 z m 476 99 l 263 99 l 263 435 l 542 435 l 543 538 l 263 538 l 263 856 l 476 856 b 883 478 715 856 883 699 b 476 99 883 256 715 99 z "},"E":{"ha":871,"x_min":0,"x_max":0,"o":"m 794 851 l 794 954 l 110 954 l 110 0 l 794 0 l 794 103 l 219 103 l 219 435 l 738 435 l 738 538 l 219 538 l 219 851 z "},"É":{"ha":871,"x_min":0,"x_max":0,"o":"m 619 1211 l 510 1236 l 342 1036 l 422 1036 z m 794 851 l 794 954 l 110 954 l 110 0 l 794 0 l 794 103 l 219 103 l 219 435 l 738 435 l 738 538 l 219 538 l 219 851 z "},"Ě":{"ha":871,"x_min":0,"x_max":0,"o":"m 501 1036 l 643 1226 l 563 1226 l 453 1107 l 344 1226 l 265 1226 l 404 1036 z m 794 851 l 794 954 l 110 954 l 110 0 l 794 0 l 794 103 l 219 103 l 219 435 l 738 435 l 738 538 l 219 538 l 219 851 z "},"Ê":{"ha":871,"x_min":0,"x_max":0,"o":"m 453 1156 l 563 1036 l 643 1036 l 501 1226 l 404 1226 l 265 1036 l 344 1036 z m 794 851 l 794 954 l 110 954 l 110 0 l 794 0 l 794 103 l 219 103 l 219 435 l 738 435 l 738 538 l 219 538 l 219 851 z "},"Ë":{"ha":871,"x_min":0,"x_max":0,"o":"m 319 1065 b 383 1129 354 1065 383 1094 b 319 1193 383 1163 354 1193 b 256 1129 283 1193 256 1163 b 319 1065 256 1094 283 1065 z m 586 1065 b 650 1129 621 1065 650 1094 b 586 1193 650 1163 621 1193 b 522 1129 550 1193 522 1163 b 586 1065 522 1094 550 1065 z m 794 851 l 794 954 l 110 954 l 110 0 l 794 0 l 794 103 l 219 103 l 219 435 l 738 435 l 738 538 l 219 538 l 219 851 z "},"Ė":{"ha":871,"x_min":0,"x_max":0,"o":"m 453 1065 b 517 1129 488 1065 517 1094 b 453 1193 517 1163 488 1193 b 389 1129 417 1193 389 1163 b 453 1065 389 1094 417 1065 z m 794 851 l 794 954 l 110 954 l 110 0 l 794 0 l 794 103 l 219 103 l 219 435 l 738 435 l 738 538 l 219 538 l 219 851 z "},"Ẹ":{"ha":871,"x_min":0,"x_max":0,"o":"m 794 851 l 794 954 l 110 954 l 110 0 l 794 0 l 794 103 l 219 103 l 219 435 l 738 435 l 738 538 l 219 538 l 219 851 z m 453 -111 b 389 -175 417 -111 389 -142 b 453 -239 389 -210 417 -239 b 517 -175 488 -239 517 -210 b 453 -111 517 -142 488 -111 z "},"È":{"ha":871,"x_min":0,"x_max":0,"o":"m 550 1036 l 382 1236 l 272 1211 l 469 1036 z m 794 851 l 794 954 l 110 954 l 110 0 l 794 0 l 794 103 l 219 103 l 219 435 l 738 435 l 738 538 l 219 538 l 219 851 z "},"Ē":{"ha":871,"x_min":0,"x_max":0,"o":"m 668 1138 l 238 1138 l 238 1061 l 668 1061 z m 794 851 l 794 954 l 110 954 l 110 0 l 794 0 l 794 103 l 219 103 l 219 435 l 738 435 l 738 538 l 219 538 l 219 851 z "},"Ę":{"ha":871,"x_min":0,"x_max":0,"o":"m 794 851 l 794 954 l 110 954 l 110 0 l 563 0 b 526 -92 542 -24 526 -56 b 678 -240 526 -185 589 -240 b 794 -200 722 -240 763 -226 l 750 -132 b 685 -158 736 -147 714 -158 b 604 -79 633 -158 604 -128 b 685 0 604 -33 638 0 l 794 0 l 794 103 l 219 103 l 219 435 l 738 435 l 738 538 l 219 538 l 219 851 z "},"Ẽ":{"ha":871,"x_min":0,"x_max":0,"o":"m 363 1126 b 542 1035 419 1126 460 1035 b 675 1200 618 1035 661 1094 l 611 1210 b 542 1115 600 1143 578 1115 b 363 1207 485 1115 444 1207 b 229 1042 286 1207 243 1147 l 293 1032 b 363 1126 304 1099 326 1126 z m 794 851 l 794 954 l 110 954 l 110 0 l 794 0 l 794 103 l 219 103 l 219 435 l 738 435 l 738 538 l 219 538 l 219 851 z "},"F":{"ha":846,"x_min":0,"x_max":0,"o":"m 794 851 l 794 954 l 110 954 l 110 0 l 219 0 l 219 435 l 738 435 l 738 538 l 219 538 l 219 851 z "},"G":{"ha":1035,"x_min":0,"x_max":0,"o":"m 550 400 l 824 400 l 824 172 b 561 83 753 118 650 83 b 182 478 356 83 182 264 b 561 871 182 690 356 871 b 858 750 665 871 789 824 l 932 825 b 561 971 843 915 693 971 b 72 478 297 971 72 746 b 561 -17 72 210 297 -17 b 932 129 693 -17 843 40 l 932 503 l 550 503 z "},"Ğ":{"ha":1035,"x_min":0,"x_max":0,"o":"m 764 1138 l 699 1203 b 561 1144 661 1167 610 1144 b 424 1203 513 1144 461 1167 l 358 1138 b 561 1054 415 1082 488 1054 b 764 1138 635 1054 708 1082 z m 550 400 l 824 400 l 824 172 b 561 83 753 118 650 83 b 182 478 356 83 182 264 b 561 871 182 690 356 871 b 858 750 665 871 789 824 l 932 825 b 561 971 843 915 693 971 b 72 478 297 971 72 746 b 561 -17 72 210 297 -17 b 932 129 693 -17 843 40 l 932 503 l 550 503 z "},"Ģ":{"ha":1035,"x_min":0,"x_max":0,"o":"m 550 400 l 824 400 l 824 172 b 561 83 753 118 650 83 b 182 478 356 83 182 264 b 561 871 182 690 356 871 b 858 750 665 871 789 824 l 932 825 b 561 971 843 915 693 971 b 72 478 297 971 72 746 b 561 -17 72 210 297 -17 b 932 129 693 -17 843 40 l 932 503 l 550 503 z m 557 -114 b 493 -176 521 -114 493 -143 b 556 -240 493 -211 521 -240 b 494 -350 547 -278 526 -314 l 539 -382 b 629 -208 608 -293 629 -254 b 557 -114 629 -153 601 -114 z "},"H":{"ha":999,"x_min":0,"x_max":0,"o":"m 781 954 l 781 538 l 218 538 l 218 954 l 110 954 l 110 0 l 218 0 l 218 435 l 781 435 l 781 0 l 889 0 l 889 954 z "},"I":{"ha":328,"x_min":0,"x_max":0,"o":"m 110 0 l 218 0 l 218 954 l 110 954 z "},"Í":{"ha":328,"x_min":0,"x_max":0,"o":"m 122 1036 l 203 1036 l 400 1211 l 290 1236 z m 110 0 l 218 0 l 218 954 l 110 954 z "},"Î":{"ha":328,"x_min":0,"x_max":0,"o":"m -24 1036 l 56 1036 l 164 1156 l 274 1036 l 354 1036 l 213 1226 l 115 1226 z m 110 0 l 218 0 l 218 954 l 110 954 z "},"Ï":{"ha":328,"x_min":0,"x_max":0,"o":"m 31 1065 b 94 1129 65 1065 94 1094 b 31 1193 94 1163 65 1193 b -33 1129 -6 1193 -33 1163 b 31 1065 -33 1094 -6 1065 z m 297 1065 b 361 1129 332 1065 361 1094 b 297 1193 361 1163 332 1193 b 233 1129 261 1193 233 1163 b 297 1065 233 1094 261 1065 z m 110 0 l 218 0 l 218 954 l 110 954 z "},"İ":{"ha":328,"x_min":0,"x_max":0,"o":"m 164 1065 b 228 1129 199 1065 228 1094 b 164 1193 228 1163 199 1193 b 100 1129 128 1193 100 1163 b 164 1065 100 1094 128 1065 z m 110 0 l 218 0 l 218 954 l 110 954 z "},"Ì":{"ha":328,"x_min":0,"x_max":0,"o":"m 125 1036 l 206 1036 l 38 1236 l -72 1211 z m 110 0 l 218 0 l 218 954 l 110 954 z "},"Ī":{"ha":328,"x_min":0,"x_max":0,"o":"m -51 1061 l 379 1061 l 379 1138 l -51 1138 z m 110 0 l 218 0 l 218 954 l 110 954 z "},"Į":{"ha":328,"x_min":0,"x_max":0,"o":"m 283 -132 b 218 -158 269 -147 247 -158 b 138 -79 167 -158 138 -128 b 218 0 138 -33 171 0 l 218 954 l 110 954 l 110 13 b 60 -92 81 -10 60 -49 b 211 -240 60 -185 122 -240 b 328 -200 256 -240 296 -226 z "},"J":{"ha":750,"x_min":0,"x_max":0,"o":"m 329 -17 b 631 311 506 -17 631 119 l 631 954 l 522 954 l 522 311 b 329 82 522 176 442 82 b 115 219 242 82 153 139 l 36 142 b 329 -17 94 49 217 -17 z "},"K":{"ha":917,"x_min":0,"x_max":0,"o":"m 128 0 l 236 0 l 236 286 l 386 444 l 749 0 l 889 0 l 461 518 l 863 954 l 719 954 l 236 426 l 236 954 l 128 954 z "},"Ķ":{"ha":917,"x_min":0,"x_max":0,"o":"m 128 0 l 236 0 l 236 286 l 386 444 l 749 0 l 889 0 l 461 518 l 863 954 l 719 954 l 236 426 l 236 954 l 128 954 z m 456 -382 b 546 -208 525 -293 546 -254 b 474 -114 546 -153 518 -114 b 410 -176 438 -114 410 -143 b 472 -240 410 -211 438 -240 b 411 -350 464 -278 443 -314 z "},"L":{"ha":771,"x_min":0,"x_max":0,"o":"m 203 103 l 203 954 l 94 954 l 94 0 l 724 0 l 724 103 z "},"Ĺ":{"ha":771,"x_min":0,"x_max":0,"o":"m 386 1211 l 276 1236 l 108 1036 l 189 1036 z m 203 103 l 203 954 l 94 954 l 94 0 l 724 0 l 724 103 z "},"Ľ":{"ha":771,"x_min":0,"x_max":0,"o":"m 369 844 b 308 735 361 807 340 771 l 353 703 b 443 876 422 792 443 831 b 371 971 443 932 415 971 b 307 908 335 971 307 942 b 369 844 307 874 335 844 z m 203 103 l 203 954 l 94 954 l 94 0 l 724 0 l 724 103 z "},"Ł":{"ha":843,"x_min":0,"x_max":0,"o":"m 275 103 l 275 440 l 467 539 l 467 643 l 275 544 l 275 954 l 167 954 l 167 489 l 51 429 l 51 325 l 167 385 l 167 0 l 796 0 l 796 103 z "},"M":{"ha":1186,"x_min":0,"x_max":0,"o":"m 131 0 l 239 0 l 239 721 l 593 56 l 947 721 l 947 0 l 1056 0 l 1056 954 l 947 954 l 593 289 l 239 954 l 131 954 z "},"N":{"ha":1069,"x_min":0,"x_max":0,"o":"m 131 0 l 239 0 l 239 776 l 831 0 l 939 0 l 939 954 l 831 954 l 831 178 l 239 954 l 131 954 z "},"Ń":{"ha":1069,"x_min":0,"x_max":0,"o":"m 424 1036 l 504 1036 l 701 1211 l 592 1236 z m 131 0 l 239 0 l 239 776 l 831 0 l 939 0 l 939 954 l 831 954 l 831 178 l 239 954 l 131 954 z "},"Ň":{"ha":1069,"x_min":0,"x_max":0,"o":"m 486 1036 l 583 1036 l 725 1226 l 644 1226 l 535 1107 l 426 1226 l 347 1226 z m 131 0 l 239 0 l 239 776 l 831 0 l 939 0 l 939 954 l 831 954 l 831 178 l 239 954 l 131 954 z "},"Ņ":{"ha":1069,"x_min":0,"x_max":0,"o":"m 131 0 l 239 0 l 239 776 l 831 0 l 939 0 l 939 954 l 831 954 l 831 178 l 239 954 l 131 954 z m 517 -382 b 607 -208 586 -293 607 -254 b 535 -114 607 -153 579 -114 b 471 -176 499 -114 471 -143 b 533 -240 471 -211 499 -240 b 472 -350 525 -278 504 -314 z "},"Ñ":{"ha":1069,"x_min":0,"x_max":0,"o":"m 624 1035 b 757 1200 700 1035 743 1094 l 693 1210 b 624 1115 682 1143 660 1115 b 444 1207 567 1115 526 1207 b 311 1042 368 1207 325 1147 l 375 1032 b 444 1126 386 1099 408 1126 b 624 1035 501 1126 542 1035 z m 131 0 l 239 0 l 239 776 l 831 0 l 939 0 l 939 954 l 831 954 l 831 178 l 239 954 l 131 954 z "},"O":{"ha":1121,"x_min":0,"x_max":0,"o":"m 561 -17 b 1049 478 826 -17 1049 210 b 561 971 1049 746 826 971 b 72 478 297 971 72 746 b 561 -17 72 210 297 -17 z m 561 83 b 182 478 356 83 182 264 b 561 871 182 690 356 871 b 939 478 767 871 939 690 b 561 83 939 264 767 83 z "},"Ó":{"ha":1121,"x_min":0,"x_max":0,"o":"m 519 1036 l 600 1036 l 797 1211 l 688 1236 z m 561 -17 b 1049 478 826 -17 1049 210 b 561 971 1049 746 826 971 b 72 478 297 971 72 746 b 561 -17 72 210 297 -17 z m 561 83 b 182 478 356 83 182 264 b 561 871 182 690 356 871 b 939 478 767 871 939 690 b 561 83 939 264 767 83 z "},"Ô":{"ha":1121,"x_min":0,"x_max":0,"o":"m 374 1036 l 453 1036 l 561 1156 l 671 1036 l 751 1036 l 610 1226 l 513 1226 z m 561 -17 b 1049 478 826 -17 1049 210 b 561 971 1049 746 826 971 b 72 478 297 971 72 746 b 561 -17 72 210 297 -17 z m 561 83 b 182 478 356 83 182 264 b 561 871 182 690 356 871 b 939 478 767 871 939 690 b 561 83 939 264 767 83 z "},"Ö":{"ha":1121,"x_min":0,"x_max":0,"o":"m 428 1065 b 492 1129 463 1065 492 1094 b 428 1193 492 1163 463 1193 b 364 1129 392 1193 364 1163 b 428 1065 364 1094 392 1065 z m 694 1065 b 758 1129 729 1065 758 1094 b 694 1193 758 1163 729 1193 b 631 1129 658 1193 631 1163 b 694 1065 631 1094 658 1065 z m 561 -17 b 1049 478 826 -17 1049 210 b 561 971 1049 746 826 971 b 72 478 297 971 72 746 b 561 -17 72 210 297 -17 z m 561 83 b 182 478 356 83 182 264 b 561 871 182 690 356 871 b 939 478 767 871 939 690 b 561 83 939 264 767 83 z "},"Ò":{"ha":1121,"x_min":0,"x_max":0,"o":"m 525 1036 l 606 1036 l 438 1236 l 328 1211 z m 561 -17 b 1049 478 826 -17 1049 210 b 561 971 1049 746 826 971 b 72 478 297 971 72 746 b 561 -17 72 210 297 -17 z m 561 83 b 182 478 356 83 182 264 b 561 871 182 690 356 871 b 939 478 767 871 939 690 b 561 83 939 264 767 83 z "},"Ő":{"ha":1121,"x_min":0,"x_max":0,"o":"m 367 1035 l 447 1035 l 644 1211 l 535 1236 z m 644 1035 l 725 1035 l 922 1208 l 813 1233 z m 561 -17 b 1049 478 826 -17 1049 210 b 561 971 1049 746 826 971 b 72 478 297 971 72 746 b 561 -17 72 210 297 -17 z m 561 83 b 182 478 356 83 182 264 b 561 871 182 690 356 871 b 939 478 767 871 939 690 b 561 83 939 264 767 83 z "},"Ō":{"ha":1121,"x_min":0,"x_max":0,"o":"m 346 1061 l 776 1061 l 776 1138 l 346 1138 z m 561 -17 b 1049 478 826 -17 1049 210 b 561 971 1049 746 826 971 b 72 478 297 971 72 746 b 561 -17 72 210 297 -17 z m 561 83 b 182 478 356 83 182 264 b 561 871 182 690 356 871 b 939 478 767 871 939 690 b 561 83 939 264 767 83 z "},"Ø":{"ha":1121,"x_min":0,"x_max":0,"o":"m 915 814 l 1038 954 l 919 954 l 849 874 b 561 971 768 935 668 971 b 72 478 297 971 72 746 b 207 140 72 349 124 229 l 85 0 l 203 0 l 274 81 b 561 -17 356 19 456 -17 b 1049 478 826 -17 1049 210 b 915 814 1049 607 997 725 z m 182 478 b 561 871 182 690 356 871 b 781 796 642 871 718 843 l 276 219 b 182 478 218 289 182 381 z m 561 83 b 342 158 481 83 404 111 l 844 735 b 939 478 903 665 939 575 b 561 83 939 264 767 83 z "},"Õ":{"ha":1121,"x_min":0,"x_max":0,"o":"m 650 1035 b 783 1200 726 1035 769 1094 l 719 1210 b 650 1115 708 1143 686 1115 b 471 1207 593 1115 553 1207 b 338 1042 394 1207 351 1147 l 401 1032 b 471 1126 413 1099 435 1126 b 650 1035 528 1126 568 1035 z m 561 -17 b 1049 478 826 -17 1049 210 b 561 971 1049 746 826 971 b 72 478 297 971 72 746 b 561 -17 72 210 297 -17 z m 561 83 b 182 478 356 83 182 264 b 561 871 182 690 356 871 b 939 478 767 871 939 690 b 561 83 939 264 767 83 z "},"Œ":{"ha":1433,"x_min":0,"x_max":0,"o":"m 1357 851 l 1357 954 l 561 954 b 72 464 297 954 72 732 b 561 0 72 196 297 0 l 1357 0 l 1357 103 l 782 103 l 782 435 l 1300 435 l 1300 538 l 782 538 l 782 851 z m 561 100 b 182 464 356 100 182 250 b 561 854 182 676 356 854 l 672 854 l 672 100 z "},"P":{"ha":894,"x_min":0,"x_max":0,"o":"m 110 0 l 218 0 l 218 343 l 497 343 b 849 649 694 343 849 469 b 497 954 849 828 694 954 l 110 954 z m 218 446 l 218 851 l 478 851 b 739 649 633 851 739 776 b 478 446 739 521 633 446 z "},"Þ":{"ha":894,"x_min":0,"x_max":0,"o":"m 110 0 l 218 0 l 218 175 l 497 175 b 849 481 694 175 849 301 b 497 786 849 660 694 786 l 221 786 l 221 954 l 110 954 z m 218 278 l 218 683 l 478 683 b 739 481 633 683 739 608 b 478 278 739 353 633 278 z "},"Q":{"ha":1121,"x_min":0,"x_max":0,"o":"m 1049 478 b 561 971 1049 746 826 971 b 72 478 297 971 72 746 b 561 -17 72 210 297 -17 b 868 97 676 -17 783 26 l 979 0 l 1049 81 l 942 174 b 1049 478 1008 258 1049 364 z m 561 83 b 182 478 356 83 182 264 b 561 871 182 690 356 871 b 939 478 767 871 939 690 b 863 243 939 390 910 308 l 710 375 l 640 294 l 789 165 b 561 83 725 114 646 83 z "},"R":{"ha":903,"x_min":0,"x_max":0,"o":"m 849 649 b 497 954 849 828 694 954 l 110 954 l 110 0 l 218 0 l 218 343 l 471 343 l 713 0 l 836 0 l 589 353 b 849 649 740 385 849 499 z m 218 851 l 478 851 b 739 649 633 851 739 776 b 478 446 739 521 633 446 l 218 446 z "},"Ŕ":{"ha":903,"x_min":0,"x_max":0,"o":"m 631 1211 l 521 1236 l 353 1036 l 433 1036 z m 849 649 b 497 954 849 828 694 954 l 110 954 l 110 0 l 218 0 l 218 343 l 471 343 l 713 0 l 836 0 l 589 353 b 849 649 740 385 849 499 z m 218 851 l 478 851 b 739 649 633 851 739 776 b 478 446 739 521 633 446 l 218 446 z "},"Ř":{"ha":903,"x_min":0,"x_max":0,"o":"m 513 1036 l 654 1226 l 574 1226 l 464 1107 l 356 1226 l 276 1226 l 415 1036 z m 849 649 b 497 954 849 828 694 954 l 110 954 l 110 0 l 218 0 l 218 343 l 471 343 l 713 0 l 836 0 l 589 353 b 849 649 740 385 849 499 z m 218 851 l 478 851 b 739 649 633 851 739 776 b 478 446 739 521 633 446 l 218 446 z "},"Ŗ":{"ha":903,"x_min":0,"x_max":0,"o":"m 849 649 b 497 954 849 828 694 954 l 110 954 l 110 0 l 218 0 l 218 343 l 471 343 l 713 0 l 836 0 l 589 353 b 849 649 740 385 849 499 z m 218 851 l 478 851 b 739 649 633 851 739 776 b 478 446 739 521 633 446 l 218 446 z m 443 -114 b 379 -176 407 -114 379 -143 b 442 -240 379 -211 407 -240 b 381 -350 433 -278 413 -314 l 425 -382 b 515 -208 494 -293 515 -254 b 443 -114 515 -153 488 -114 z "},"S":{"ha":851,"x_min":0,"x_max":0,"o":"m 440 -15 b 776 260 663 -15 776 108 b 464 536 776 428 646 493 b 207 708 301 575 207 610 b 411 874 207 796 293 874 b 685 751 511 874 606 828 l 751 836 b 417 972 664 917 558 972 b 97 700 233 972 97 853 b 410 431 97 535 218 475 b 667 250 576 392 667 351 b 444 83 667 164 592 83 b 132 221 311 83 213 140 l 64 136 b 440 -15 160 42 283 -15 z "},"Ś":{"ha":851,"x_min":0,"x_max":0,"o":"m 306 1036 l 386 1036 l 583 1211 l 474 1236 z m 440 -15 b 776 260 663 -15 776 108 b 464 536 776 428 646 493 b 207 708 301 575 207 610 b 411 874 207 796 293 874 b 685 751 511 874 606 828 l 751 836 b 417 972 664 917 558 972 b 97 700 233 972 97 853 b 410 431 97 535 218 475 b 667 250 576 392 667 351 b 444 83 667 164 592 83 b 132 221 311 83 213 140 l 64 136 b 440 -15 160 42 283 -15 z "},"Š":{"ha":851,"x_min":0,"x_max":0,"o":"m 368 1036 l 465 1036 l 607 1226 l 526 1226 l 417 1107 l 308 1226 l 229 1226 z m 440 -15 b 776 260 663 -15 776 108 b 464 536 776 428 646 493 b 207 708 301 575 207 610 b 411 874 207 796 293 874 b 685 751 511 874 606 828 l 751 836 b 417 972 664 917 558 972 b 97 700 233 972 97 853 b 410 431 97 535 218 475 b 667 250 576 392 667 351 b 444 83 667 164 592 83 b 132 221 311 83 213 140 l 64 136 b 440 -15 160 42 283 -15 z "},"Ş":{"ha":851,"x_min":0,"x_max":0,"o":"m 776 260 b 464 536 776 428 646 493 b 207 708 301 575 207 610 b 411 874 207 796 293 874 b 685 751 511 874 606 828 l 751 836 b 417 972 664 917 558 972 b 97 700 233 972 97 853 b 410 431 97 535 218 475 b 667 250 576 392 667 351 b 444 83 667 164 592 83 b 132 221 311 83 213 140 l 64 136 b 393 -14 150 51 258 -3 l 360 -93 l 382 -117 b 429 -101 394 -107 413 -101 b 483 -149 467 -101 483 -122 b 414 -201 483 -179 454 -201 b 324 -169 383 -201 351 -192 l 297 -228 b 419 -267 325 -250 371 -267 b 556 -154 496 -267 556 -222 b 460 -62 556 -100 515 -62 b 444 -64 454 -62 450 -62 l 465 -15 b 776 260 671 -6 776 114 z "},"T":{"ha":875,"x_min":0,"x_max":0,"o":"m 383 0 l 492 0 l 492 851 l 813 851 l 813 954 l 63 954 l 63 851 l 383 851 z "},"Ť":{"ha":875,"x_min":0,"x_max":0,"o":"m 389 1036 l 486 1036 l 628 1226 l 547 1226 l 438 1107 l 329 1226 l 250 1226 z m 383 0 l 492 0 l 492 851 l 813 851 l 813 954 l 63 954 l 63 851 l 383 851 z "},"Ţ":{"ha":875,"x_min":0,"x_max":0,"o":"m 492 0 l 492 851 l 813 851 l 813 954 l 63 954 l 63 851 l 383 851 l 383 0 l 401 0 l 363 -93 l 385 -117 b 432 -101 397 -107 415 -101 b 486 -149 469 -101 486 -122 b 417 -201 486 -179 457 -201 b 326 -169 386 -201 354 -192 l 300 -228 b 422 -267 328 -250 374 -267 b 558 -154 499 -267 558 -222 b 463 -62 558 -100 518 -62 b 447 -64 457 -62 453 -62 l 474 0 z "},"U":{"ha":1036,"x_min":0,"x_max":0,"o":"m 518 -17 b 917 396 751 -17 917 154 l 917 954 l 808 954 l 808 396 b 518 82 808 213 688 82 b 228 396 349 82 228 213 l 228 954 l 119 954 l 119 396 b 518 -17 119 154 285 -17 z "},"Ú":{"ha":1036,"x_min":0,"x_max":0,"o":"m 407 1036 l 488 1036 l 685 1211 l 575 1236 z m 518 -17 b 917 396 751 -17 917 154 l 917 954 l 808 954 l 808 396 b 518 82 808 213 688 82 b 228 396 349 82 228 213 l 228 954 l 119 954 l 119 396 b 518 -17 119 154 285 -17 z "},"Û":{"ha":1036,"x_min":0,"x_max":0,"o":"m 331 1036 l 410 1036 l 518 1156 l 628 1036 l 708 1036 l 567 1226 l 469 1226 z m 518 -17 b 917 396 751 -17 917 154 l 917 954 l 808 954 l 808 396 b 518 82 808 213 688 82 b 228 396 349 82 228 213 l 228 954 l 119 954 l 119 396 b 518 -17 119 154 285 -17 z "},"Ü":{"ha":1036,"x_min":0,"x_max":0,"o":"m 385 1065 b 449 1129 419 1065 449 1094 b 385 1193 449 1163 419 1193 b 321 1129 349 1193 321 1163 b 385 1065 321 1094 349 1065 z m 651 1065 b 715 1129 686 1065 715 1094 b 651 1193 715 1163 686 1193 b 588 1129 615 1193 588 1163 b 651 1065 588 1094 615 1065 z m 518 -17 b 917 396 751 -17 917 154 l 917 954 l 808 954 l 808 396 b 518 82 808 213 688 82 b 228 396 349 82 228 213 l 228 954 l 119 954 l 119 396 b 518 -17 119 154 285 -17 z "},"Ù":{"ha":1036,"x_min":0,"x_max":0,"o":"m 535 1036 l 615 1036 l 447 1236 l 338 1211 z m 518 -17 b 917 396 751 -17 917 154 l 917 954 l 808 954 l 808 396 b 518 82 808 213 688 82 b 228 396 349 82 228 213 l 228 954 l 119 954 l 119 396 b 518 -17 119 154 285 -17 z "},"Ű":{"ha":1036,"x_min":0,"x_max":0,"o":"m 324 1035 l 404 1035 l 601 1211 l 492 1236 z m 601 1035 l 682 1035 l 879 1208 l 769 1233 z m 518 -17 b 917 396 751 -17 917 154 l 917 954 l 808 954 l 808 396 b 518 82 808 213 688 82 b 228 396 349 82 228 213 l 228 954 l 119 954 l 119 396 b 518 -17 119 154 285 -17 z "},"Ū":{"ha":1036,"x_min":0,"x_max":0,"o":"m 303 1061 l 733 1061 l 733 1138 l 303 1138 z m 518 -17 b 917 396 751 -17 917 154 l 917 954 l 808 954 l 808 396 b 518 82 808 213 688 82 b 228 396 349 82 228 213 l 228 954 l 119 954 l 119 396 b 518 -17 119 154 285 -17 z "},"Ų":{"ha":1036,"x_min":0,"x_max":0,"o":"m 808 954 l 808 396 b 518 82 808 213 688 82 b 228 396 349 82 228 213 l 228 954 l 119 954 l 119 396 b 421 -6 119 189 240 35 b 390 -92 403 -29 390 -58 b 542 -240 390 -185 453 -240 b 658 -200 586 -240 626 -226 l 614 -132 b 549 -158 600 -147 578 -158 b 468 -79 497 -158 468 -128 b 497 -17 468 -53 479 -31 l 518 -17 b 917 396 751 -17 917 154 l 917 954 z "},"Ů":{"ha":1036,"x_min":0,"x_max":0,"o":"m 518 1054 b 661 1197 597 1054 661 1118 b 518 1340 661 1276 597 1340 b 375 1197 439 1340 375 1276 b 518 1054 375 1118 439 1054 z m 518 1115 b 436 1197 474 1115 436 1153 b 518 1279 436 1242 474 1279 b 600 1197 563 1279 600 1242 b 518 1115 600 1153 563 1115 z m 518 -17 b 917 396 751 -17 917 154 l 917 954 l 808 954 l 808 396 b 518 82 808 213 688 82 b 228 396 349 82 228 213 l 228 954 l 119 954 l 119 396 b 518 -17 119 154 285 -17 z "},"V":{"ha":1049,"x_min":0,"x_max":0,"o":"m 886 954 l 525 133 l 163 954 l 44 954 l 465 0 l 583 0 l 1004 954 z "},"W":{"ha":1501,"x_min":0,"x_max":0,"o":"m 378 0 l 485 0 l 751 813 l 1017 0 l 1124 0 l 1450 954 l 1328 954 l 1064 182 l 811 954 l 690 954 l 438 182 l 174 954 l 51 954 z "},"Ẃ":{"ha":1501,"x_min":0,"x_max":0,"o":"m 710 1036 l 790 1036 l 988 1211 l 878 1236 z m 378 0 l 485 0 l 751 813 l 1017 0 l 1124 0 l 1450 954 l 1328 954 l 1064 182 l 811 954 l 690 954 l 438 182 l 174 954 l 51 954 z "},"Ŵ":{"ha":1501,"x_min":0,"x_max":0,"o":"m 564 1036 l 643 1036 l 751 1156 l 861 1036 l 942 1036 l 800 1226 l 703 1226 z m 378 0 l 485 0 l 751 813 l 1017 0 l 1124 0 l 1450 954 l 1328 954 l 1064 182 l 811 954 l 690 954 l 438 182 l 174 954 l 51 954 z "},"Ẅ":{"ha":1501,"x_min":0,"x_max":0,"o":"m 618 1065 b 682 1129 653 1065 682 1094 b 618 1193 682 1163 653 1193 b 554 1129 582 1193 554 1163 b 618 1065 554 1094 582 1065 z m 885 1065 b 949 1129 919 1065 949 1094 b 885 1193 949 1163 919 1193 b 821 1129 849 1193 821 1163 b 885 1065 821 1094 849 1065 z m 378 0 l 485 0 l 751 813 l 1017 0 l 1124 0 l 1450 954 l 1328 954 l 1064 182 l 811 954 l 690 954 l 438 182 l 174 954 l 51 954 z "},"Ẁ":{"ha":1501,"x_min":0,"x_max":0,"o":"m 713 1036 l 793 1036 l 625 1236 l 515 1211 z m 378 0 l 485 0 l 751 813 l 1017 0 l 1124 0 l 1450 954 l 1328 954 l 1064 182 l 811 954 l 690 954 l 438 182 l 174 954 l 51 954 z "},"X":{"ha":968,"x_min":0,"x_max":0,"o":"m 915 954 l 783 954 l 485 564 l 186 954 l 53 954 l 418 476 l 53 0 l 185 0 l 483 390 l 782 0 l 915 0 l 550 478 z "},"Y":{"ha":932,"x_min":0,"x_max":0,"o":"m 410 0 l 524 0 l 524 389 l 907 954 l 776 954 l 467 492 l 160 954 l 25 954 l 410 389 z "},"Ý":{"ha":932,"x_min":0,"x_max":0,"o":"m 356 1036 l 436 1036 l 633 1211 l 524 1236 z m 410 0 l 524 0 l 524 389 l 907 954 l 776 954 l 467 492 l 160 954 l 25 954 l 410 389 z "},"Ŷ":{"ha":932,"x_min":0,"x_max":0,"o":"m 279 1036 l 358 1036 l 467 1156 l 576 1036 l 657 1036 l 515 1226 l 418 1226 z m 410 0 l 524 0 l 524 389 l 907 954 l 776 954 l 467 492 l 160 954 l 25 954 l 410 389 z "},"Ÿ":{"ha":932,"x_min":0,"x_max":0,"o":"m 333 1065 b 397 1129 368 1065 397 1094 b 333 1193 397 1163 368 1193 b 269 1129 297 1193 269 1163 b 333 1065 269 1094 297 1065 z m 600 1065 b 664 1129 635 1065 664 1094 b 600 1193 664 1163 635 1193 b 536 1129 564 1193 536 1163 b 600 1065 536 1094 564 1065 z m 410 0 l 524 0 l 524 389 l 907 954 l 776 954 l 467 492 l 160 954 l 25 954 l 410 389 z "},"Ỳ":{"ha":932,"x_min":0,"x_max":0,"o":"m 483 1036 l 564 1036 l 396 1236 l 286 1211 z m 410 0 l 524 0 l 524 389 l 907 954 l 776 954 l 467 492 l 160 954 l 25 954 l 410 389 z "},"Z":{"ha":888,"x_min":0,"x_max":0,"o":"m 81 0 l 810 0 l 810 103 l 228 103 l 804 868 l 804 954 l 90 954 l 90 851 l 656 851 l 81 86 z "},"Ź":{"ha":888,"x_min":0,"x_max":0,"o":"m 336 1036 l 417 1036 l 614 1211 l 504 1236 z m 81 0 l 810 0 l 810 103 l 228 103 l 804 868 l 804 954 l 90 954 l 90 851 l 656 851 l 81 86 z "},"Ž":{"ha":888,"x_min":0,"x_max":0,"o":"m 399 1036 l 496 1036 l 638 1226 l 557 1226 l 447 1107 l 339 1226 l 260 1226 z m 81 0 l 810 0 l 810 103 l 228 103 l 804 868 l 804 954 l 90 954 l 90 851 l 656 851 l 81 86 z "},"Ż":{"ha":888,"x_min":0,"x_max":0,"o":"m 447 1065 b 511 1129 482 1065 511 1094 b 447 1193 511 1163 482 1193 b 383 1129 411 1193 383 1163 b 447 1065 383 1094 411 1065 z m 81 0 l 810 0 l 810 103 l 228 103 l 804 868 l 804 954 l 90 954 l 90 851 l 656 851 l 81 86 z "},"a":{"ha":796,"x_min":0,"x_max":0,"o":"m 397 735 b 139 665 328 735 242 717 l 181 581 b 390 646 246 614 318 646 b 585 438 546 646 585 535 l 585 411 b 351 451 511 435 429 451 b 69 213 197 451 69 356 b 332 -17 69 71 181 -17 b 585 113 426 -17 533 28 l 585 0 l 689 0 l 689 438 b 397 735 689 611 593 735 z m 350 75 b 171 217 249 75 171 128 b 368 364 171 303 261 364 b 585 335 446 364 519 353 l 585 225 b 350 75 557 124 444 75 z "},"á":{"ha":796,"x_min":0,"x_max":0,"o":"m 574 975 l 464 1000 l 296 800 l 376 800 z m 397 735 b 139 665 328 735 242 717 l 181 581 b 390 646 246 614 318 646 b 585 438 546 646 585 535 l 585 411 b 351 451 511 435 429 451 b 69 213 197 451 69 356 b 332 -17 69 71 181 -17 b 585 113 426 -17 533 28 l 585 0 l 689 0 l 689 438 b 397 735 689 611 593 735 z m 350 75 b 171 217 249 75 171 128 b 368 364 171 303 261 364 b 585 335 446 364 519 353 l 585 225 b 350 75 557 124 444 75 z "},"ă":{"ha":796,"x_min":0,"x_max":0,"o":"m 610 901 l 544 967 b 407 908 507 931 456 908 b 269 967 358 908 307 931 l 204 901 b 407 818 261 846 333 818 b 610 901 481 818 554 846 z m 397 735 b 139 665 328 735 242 717 l 181 581 b 390 646 246 614 318 646 b 585 438 546 646 585 535 l 585 411 b 351 451 511 435 429 451 b 69 213 197 451 69 356 b 332 -17 69 71 181 -17 b 585 113 426 -17 533 28 l 585 0 l 689 0 l 689 438 b 397 735 689 611 593 735 z m 350 75 b 171 217 249 75 171 128 b 368 364 171 303 261 364 b 585 335 446 364 519 353 l 585 225 b 350 75 557 124 444 75 z "},"â":{"ha":796,"x_min":0,"x_max":0,"o":"m 407 919 l 517 800 l 597 800 l 456 990 l 358 990 l 219 800 l 299 800 z m 397 735 b 139 665 328 735 242 717 l 181 581 b 390 646 246 614 318 646 b 585 438 546 646 585 535 l 585 411 b 351 451 511 435 429 451 b 69 213 197 451 69 356 b 332 -17 69 71 181 -17 b 585 113 426 -17 533 28 l 585 0 l 689 0 l 689 438 b 397 735 689 611 593 735 z m 350 75 b 171 217 249 75 171 128 b 368 364 171 303 261 364 b 585 335 446 364 519 353 l 585 225 b 350 75 557 124 444 75 z "},"ä":{"ha":796,"x_min":0,"x_max":0,"o":"m 274 829 b 338 893 308 829 338 858 b 274 957 338 926 308 957 b 210 893 238 957 210 926 b 274 829 210 858 238 829 z m 540 829 b 604 893 575 829 604 858 b 540 957 604 926 575 957 b 476 893 504 957 476 926 b 540 829 476 858 504 829 z m 397 735 b 139 665 328 735 242 717 l 181 581 b 390 646 246 614 318 646 b 585 438 546 646 585 535 l 585 411 b 351 451 511 435 429 451 b 69 213 197 451 69 356 b 332 -17 69 71 181 -17 b 585 113 426 -17 533 28 l 585 0 l 689 0 l 689 438 b 397 735 689 611 593 735 z m 350 75 b 171 217 249 75 171 128 b 368 364 171 303 261 364 b 585 335 446 364 519 353 l 585 225 b 350 75 557 124 444 75 z "},"à":{"ha":796,"x_min":0,"x_max":0,"o":"m 504 800 l 336 1000 l 226 975 l 424 800 z m 397 735 b 139 665 328 735 242 717 l 181 581 b 390 646 246 614 318 646 b 585 438 546 646 585 535 l 585 411 b 351 451 511 435 429 451 b 69 213 197 451 69 356 b 332 -17 69 71 181 -17 b 585 113 426 -17 533 28 l 585 0 l 689 0 l 689 438 b 397 735 689 611 593 735 z m 350 75 b 171 217 249 75 171 128 b 368 364 171 303 261 364 b 585 335 446 364 519 353 l 585 225 b 350 75 557 124 444 75 z "},"ā":{"ha":796,"x_min":0,"x_max":0,"o":"m 622 901 l 192 901 l 192 825 l 622 825 z m 397 735 b 139 665 328 735 242 717 l 181 581 b 390 646 246 614 318 646 b 585 438 546 646 585 535 l 585 411 b 351 451 511 435 429 451 b 69 213 197 451 69 356 b 332 -17 69 71 181 -17 b 585 113 426 -17 533 28 l 585 0 l 689 0 l 689 438 b 397 735 689 611 593 735 z m 350 75 b 171 217 249 75 171 128 b 368 364 171 303 261 364 b 585 335 446 364 519 353 l 585 225 b 350 75 557 124 444 75 z "},"ą":{"ha":796,"x_min":0,"x_max":0,"o":"m 754 -132 b 689 -158 740 -147 718 -158 b 608 -79 638 -158 608 -128 b 689 0 608 -33 642 0 l 689 438 b 397 735 689 611 593 735 b 139 665 328 735 242 717 l 181 581 b 390 646 246 614 318 646 b 585 438 546 646 585 535 l 585 411 b 351 451 511 435 429 451 b 69 213 197 451 69 356 b 332 -17 69 71 181 -17 b 585 113 426 -17 533 28 l 585 15 b 531 -92 554 -6 531 -47 b 682 -240 531 -185 593 -240 b 799 -200 726 -240 767 -226 z m 350 75 b 171 217 249 75 171 128 b 368 364 171 303 261 364 b 585 335 446 364 519 353 l 585 225 b 350 75 557 124 444 75 z "},"å":{"ha":796,"x_min":0,"x_max":0,"o":"m 407 818 b 550 961 486 818 550 882 b 407 1104 550 1040 486 1104 b 264 961 328 1104 264 1040 b 407 818 264 882 328 818 z m 407 1043 b 489 961 451 1043 489 1006 b 407 879 489 917 451 879 b 325 961 363 879 325 917 b 407 1043 325 1006 363 1043 z m 397 735 b 139 665 328 735 242 717 l 181 581 b 390 646 246 614 318 646 b 585 438 546 646 585 535 l 585 411 b 351 451 511 435 429 451 b 69 213 197 451 69 356 b 332 -17 69 71 181 -17 b 585 113 426 -17 533 28 l 585 0 l 689 0 l 689 438 b 397 735 689 611 593 735 z m 350 75 b 171 217 249 75 171 128 b 368 364 171 303 261 364 b 585 335 446 364 519 353 l 585 225 b 350 75 557 124 444 75 z "},"ã":{"ha":796,"x_min":0,"x_max":0,"o":"m 317 890 b 496 799 374 890 414 799 b 629 964 572 799 615 858 l 565 974 b 496 879 554 907 532 879 b 317 971 439 879 399 971 b 183 806 240 971 197 911 l 247 796 b 317 890 258 863 281 890 z m 397 735 b 139 665 328 735 242 717 l 181 581 b 390 646 246 614 318 646 b 585 438 546 646 585 535 l 585 411 b 351 451 511 435 429 451 b 69 213 197 451 69 356 b 332 -17 69 71 181 -17 b 585 113 426 -17 533 28 l 585 0 l 689 0 l 689 438 b 397 735 689 611 593 735 z m 350 75 b 171 217 249 75 171 128 b 368 364 171 303 261 364 b 585 335 446 364 519 353 l 585 225 b 350 75 557 124 444 75 z "},"æ":{"ha":1344,"x_min":0,"x_max":0,"o":"m 947 76 b 692 319 806 76 707 179 l 1279 319 b 939 735 1279 571 1156 735 b 657 590 825 735 722 679 b 397 735 615 679 529 735 b 139 665 328 735 242 717 l 181 581 b 390 646 246 614 318 646 b 585 438 546 646 585 535 l 585 411 b 351 451 511 435 429 451 b 69 213 197 451 69 356 b 346 -17 69 68 172 -17 b 647 149 474 -17 588 51 b 949 -17 714 46 828 -17 b 1238 94 1049 -17 1175 26 l 1174 163 b 947 76 1129 114 1032 76 z m 943 642 b 1176 413 1086 642 1163 542 l 693 413 b 943 642 713 551 815 642 z m 364 75 b 171 217 243 75 171 128 b 368 364 171 303 261 364 b 585 335 446 364 519 353 l 585 282 b 364 75 585 169 483 75 z "},"b":{"ha":886,"x_min":0,"x_max":0,"o":"m 481 735 b 219 583 365 735 274 678 l 219 971 l 115 971 l 115 0 l 219 0 l 219 135 b 481 -17 274 40 365 -17 b 811 360 669 -17 811 139 b 481 735 811 579 669 735 z m 461 76 b 219 360 319 76 219 194 b 461 642 219 525 319 642 b 701 360 601 642 701 525 b 461 76 701 194 601 76 z "},"c":{"ha":753,"x_min":0,"x_max":0,"o":"m 439 -17 b 699 93 539 -17 631 25 l 626 164 b 439 76 578 110 511 76 b 176 360 296 76 176 206 b 439 642 176 513 296 642 b 622 558 510 642 575 610 l 694 629 b 439 735 626 694 536 735 b 67 360 238 735 67 564 b 439 -17 67 156 238 -17 z "},"ć":{"ha":753,"x_min":0,"x_max":0,"o":"m 300 800 l 381 800 l 578 975 l 468 1000 z m 439 -17 b 699 93 539 -17 631 25 l 626 164 b 439 76 578 110 511 76 b 176 360 296 76 176 206 b 439 642 176 513 296 642 b 622 558 510 642 575 610 l 694 629 b 439 735 626 694 536 735 b 67 360 238 735 67 564 b 439 -17 67 156 238 -17 z "},"č":{"ha":753,"x_min":0,"x_max":0,"o":"m 363 800 l 460 800 l 601 990 l 521 990 l 411 871 l 303 990 l 224 990 z m 439 -17 b 699 93 539 -17 631 25 l 626 164 b 439 76 578 110 511 76 b 176 360 296 76 176 206 b 439 642 176 513 296 642 b 622 558 510 642 575 610 l 694 629 b 439 735 626 694 536 735 b 67 360 238 735 67 564 b 439 -17 67 156 238 -17 z "},"ç":{"ha":753,"x_min":0,"x_max":0,"o":"m 458 -62 b 443 -64 453 -62 449 -62 l 464 -15 b 699 93 554 -10 636 31 l 626 164 b 439 76 578 110 511 76 b 176 360 296 76 176 206 b 439 642 176 513 296 642 b 622 558 510 642 575 610 l 694 629 b 439 735 626 694 536 735 b 67 360 238 735 67 564 b 392 -14 67 172 211 11 l 358 -93 l 381 -117 b 428 -101 393 -107 411 -101 b 482 -149 465 -101 482 -122 b 413 -201 482 -179 453 -201 b 322 -169 382 -201 350 -192 l 296 -228 b 418 -267 324 -250 369 -267 b 554 -154 494 -267 554 -222 b 458 -62 554 -100 514 -62 z "},"d":{"ha":886,"x_min":0,"x_max":0,"o":"m 667 971 l 667 583 b 406 735 613 678 521 735 b 75 360 217 735 75 579 b 406 -17 75 139 217 -17 b 667 135 521 -17 613 40 l 667 0 l 771 0 l 771 971 z m 425 76 b 185 360 285 76 185 194 b 425 642 185 525 285 642 b 667 360 567 642 667 525 b 425 76 667 194 567 76 z "},"ð":{"ha":871,"x_min":0,"x_max":0,"o":"m 542 844 l 640 889 l 603 975 l 465 914 b 364 994 433 940 400 967 l 258 951 b 371 871 296 926 333 899 l 244 815 l 282 729 l 451 804 b 639 579 531 735 597 660 b 407 692 579 650 504 692 b 83 344 218 692 83 547 b 438 -17 83 133 231 -17 b 788 374 643 -17 788 144 b 542 844 788 554 703 694 z m 438 78 b 192 343 293 78 192 188 b 433 600 192 493 292 600 b 678 340 583 600 678 483 b 438 78 678 186 578 78 z "},"ď":{"ha":886,"x_min":0,"x_max":0,"o":"m 667 583 b 406 735 613 678 521 735 b 75 360 217 735 75 579 b 406 -17 75 139 217 -17 b 667 135 521 -17 613 40 l 667 0 l 771 0 l 771 971 l 667 971 z m 939 971 b 875 908 903 971 875 942 b 938 844 875 874 903 844 b 876 735 929 807 908 771 l 921 703 b 1011 876 990 792 1011 831 b 939 971 1011 932 983 971 z m 425 76 b 185 360 285 76 185 194 b 425 642 185 525 285 642 b 667 360 567 642 667 525 b 425 76 667 194 567 76 z "},"đ":{"ha":913,"x_min":0,"x_max":0,"o":"m 861 882 l 771 882 l 771 971 l 667 971 l 667 882 l 431 882 l 431 813 l 667 813 l 667 583 b 406 735 613 678 521 735 b 75 360 217 735 75 579 b 406 -17 75 139 217 -17 b 667 135 521 -17 613 40 l 667 0 l 771 0 l 771 813 l 861 813 z m 425 76 b 185 360 285 76 185 194 b 425 642 185 525 285 642 b 667 360 567 642 667 525 b 425 76 667 194 567 76 z "},"e":{"ha":826,"x_min":0,"x_max":0,"o":"m 429 76 b 174 319 288 76 189 179 l 761 319 b 421 735 761 571 638 735 b 67 361 228 735 67 575 b 431 -17 67 140 239 -17 b 719 94 531 -17 657 26 l 656 163 b 429 76 611 114 514 76 z m 425 642 b 658 413 568 642 644 542 l 175 413 b 425 642 194 551 297 642 z "},"é":{"ha":826,"x_min":0,"x_max":0,"o":"m 588 975 l 478 1000 l 310 800 l 390 800 z m 429 76 b 174 319 288 76 189 179 l 761 319 b 421 735 761 571 638 735 b 67 361 228 735 67 575 b 431 -17 67 140 239 -17 b 719 94 531 -17 657 26 l 656 163 b 429 76 611 114 514 76 z m 425 642 b 658 413 568 642 644 542 l 175 413 b 425 642 194 551 297 642 z "},"ě":{"ha":826,"x_min":0,"x_max":0,"o":"m 469 800 l 611 990 l 531 990 l 421 871 l 313 990 l 233 990 l 372 800 z m 429 76 b 174 319 288 76 189 179 l 761 319 b 421 735 761 571 638 735 b 67 361 228 735 67 575 b 431 -17 67 140 239 -17 b 719 94 531 -17 657 26 l 656 163 b 429 76 611 114 514 76 z m 425 642 b 658 413 568 642 644 542 l 175 413 b 425 642 194 551 297 642 z "},"ê":{"ha":826,"x_min":0,"x_max":0,"o":"m 421 919 l 531 800 l 611 800 l 469 990 l 372 990 l 233 800 l 313 800 z m 429 76 b 174 319 288 76 189 179 l 761 319 b 421 735 761 571 638 735 b 67 361 228 735 67 575 b 431 -17 67 140 239 -17 b 719 94 531 -17 657 26 l 656 163 b 429 76 611 114 514 76 z m 425 642 b 658 413 568 642 644 542 l 175 413 b 425 642 194 551 297 642 z "},"ë":{"ha":826,"x_min":0,"x_max":0,"o":"m 288 829 b 351 893 322 829 351 858 b 288 957 351 926 322 957 b 224 893 251 957 224 926 b 288 829 224 858 251 829 z m 554 829 b 618 893 589 829 618 858 b 554 957 618 926 589 957 b 490 893 518 957 490 926 b 554 829 490 858 518 829 z m 429 76 b 174 319 288 76 189 179 l 761 319 b 421 735 761 571 638 735 b 67 361 228 735 67 575 b 431 -17 67 140 239 -17 b 719 94 531 -17 657 26 l 656 163 b 429 76 611 114 514 76 z m 425 642 b 658 413 568 642 644 542 l 175 413 b 425 642 194 551 297 642 z "},"ė":{"ha":826,"x_min":0,"x_max":0,"o":"m 421 829 b 485 893 456 829 485 858 b 421 957 485 926 456 957 b 357 893 385 957 357 926 b 421 829 357 858 385 829 z m 429 76 b 174 319 288 76 189 179 l 761 319 b 421 735 761 571 638 735 b 67 361 228 735 67 575 b 431 -17 67 140 239 -17 b 719 94 531 -17 657 26 l 656 163 b 429 76 611 114 514 76 z m 425 642 b 658 413 568 642 644 542 l 175 413 b 425 642 194 551 297 642 z "},"ẹ":{"ha":826,"x_min":0,"x_max":0,"o":"m 429 76 b 174 319 288 76 189 179 l 761 319 b 421 735 761 571 638 735 b 67 361 228 735 67 575 b 431 -17 67 140 239 -17 b 719 94 531 -17 657 26 l 656 163 b 429 76 611 114 514 76 z m 425 642 b 658 413 568 642 644 542 l 175 413 b 425 642 194 551 297 642 z m 421 -112 b 357 -176 385 -112 357 -143 b 421 -240 357 -211 385 -240 b 485 -176 456 -240 485 -211 b 421 -112 485 -143 456 -112 z "},"è":{"ha":826,"x_min":0,"x_max":0,"o":"m 518 800 l 350 1000 l 240 975 l 438 800 z m 429 76 b 174 319 288 76 189 179 l 761 319 b 421 735 761 571 638 735 b 67 361 228 735 67 575 b 431 -17 67 140 239 -17 b 719 94 531 -17 657 26 l 656 163 b 429 76 611 114 514 76 z m 425 642 b 658 413 568 642 644 542 l 175 413 b 425 642 194 551 297 642 z "},"ē":{"ha":826,"x_min":0,"x_max":0,"o":"m 636 901 l 206 901 l 206 825 l 636 825 z m 429 76 b 174 319 288 76 189 179 l 761 319 b 421 735 761 571 638 735 b 67 361 228 735 67 575 b 431 -17 67 140 239 -17 b 719 94 531 -17 657 26 l 656 163 b 429 76 611 114 514 76 z m 425 642 b 658 413 568 642 644 542 l 175 413 b 425 642 194 551 297 642 z "},"ę":{"ha":826,"x_min":0,"x_max":0,"o":"m 554 1 b 719 94 619 21 681 53 l 656 163 b 429 76 611 114 514 76 b 174 319 288 76 189 179 l 761 319 b 421 735 761 571 638 735 b 67 361 228 735 67 575 b 431 -17 67 140 239 -17 b 463 -15 442 -17 451 -17 b 451 -69 456 -32 451 -50 b 603 -218 451 -162 514 -218 b 719 -178 647 -218 688 -204 l 675 -110 b 610 -136 661 -125 639 -136 b 529 -57 558 -136 529 -106 b 554 1 529 -33 539 -12 z m 425 642 b 658 413 568 642 644 542 l 175 413 b 425 642 194 551 297 642 z "},"ẽ":{"ha":826,"x_min":0,"x_max":0,"o":"m 331 890 b 510 799 388 890 428 799 b 643 964 586 799 629 858 l 579 974 b 510 879 568 907 546 879 b 331 971 453 879 413 971 b 197 806 254 971 211 911 l 261 796 b 331 890 272 863 294 890 z m 429 76 b 174 319 288 76 189 179 l 761 319 b 421 735 761 571 638 735 b 67 361 228 735 67 575 b 431 -17 67 140 239 -17 b 719 94 531 -17 657 26 l 656 163 b 429 76 611 114 514 76 z m 425 642 b 658 413 568 642 644 542 l 175 413 b 425 642 194 551 297 642 z "},"f":{"ha":488,"x_min":0,"x_max":0,"o":"m 268 817 b 346 907 268 869 304 907 b 421 878 378 907 406 894 l 472 954 b 339 1000 435 983 388 1000 b 164 817 236 1000 164 924 l 164 718 l 51 718 l 51 625 l 164 625 l 164 0 l 268 0 l 268 625 l 444 625 l 444 718 l 268 718 z "},"g":{"ha":883,"x_min":0,"x_max":0,"o":"m 664 718 l 664 594 b 403 735 608 682 517 735 b 72 394 210 735 72 594 b 403 53 72 194 210 53 b 664 193 517 53 608 106 l 664 76 b 401 -146 664 -64 567 -146 b 171 -61 313 -146 226 -114 l 125 -143 b 415 -239 190 -199 299 -239 b 768 76 622 -239 768 -108 l 768 718 z m 422 146 b 182 394 282 146 182 249 b 422 642 182 539 282 642 b 664 394 564 642 664 539 b 422 146 664 249 564 146 z "},"ğ":{"ha":883,"x_min":0,"x_max":0,"o":"m 654 901 l 589 967 b 451 908 551 931 500 908 b 314 967 403 908 351 931 l 249 901 b 451 818 306 846 378 818 b 654 901 525 818 599 846 z m 664 718 l 664 594 b 403 735 608 682 517 735 b 72 394 210 735 72 594 b 403 53 72 194 210 53 b 664 193 517 53 608 106 l 664 76 b 401 -146 664 -64 567 -146 b 171 -61 313 -146 226 -114 l 125 -143 b 415 -239 190 -199 299 -239 b 768 76 622 -239 768 -108 l 768 718 z m 422 146 b 182 394 282 146 182 249 b 422 642 182 539 282 642 b 664 394 564 642 664 539 b 422 146 664 249 564 146 z "},"ģ":{"ha":883,"x_min":0,"x_max":0,"o":"m 433 831 b 497 893 469 831 497 860 b 435 957 497 928 469 957 b 496 1067 443 994 464 1031 l 451 1099 b 361 925 382 1010 361 971 b 433 831 361 869 389 831 z m 664 718 l 664 594 b 403 735 608 682 517 735 b 72 394 210 735 72 594 b 403 53 72 194 210 53 b 664 193 517 53 608 106 l 664 76 b 401 -146 664 -64 567 -146 b 171 -61 313 -146 226 -114 l 125 -143 b 415 -239 190 -199 299 -239 b 768 76 622 -239 768 -108 l 768 718 z m 422 146 b 182 394 282 146 182 249 b 422 642 182 539 282 642 b 664 394 564 642 664 539 b 422 146 664 249 564 146 z "},"h":{"ha":822,"x_min":0,"x_max":0,"o":"m 447 735 b 211 603 346 735 253 679 l 211 971 l 107 971 l 107 0 l 211 0 l 211 457 b 433 642 211 557 313 642 b 613 443 539 642 613 560 l 613 0 l 717 0 l 717 457 b 447 735 717 619 606 735 z "},"i":{"ha":313,"x_min":0,"x_max":0,"o":"m 157 849 b 225 918 194 849 225 881 b 157 986 225 954 194 986 b 88 918 118 986 88 954 b 157 849 88 881 118 849 z m 104 0 l 208 0 l 208 718 l 104 718 z "},"ı":{"ha":313,"x_min":0,"x_max":0,"o":"m 104 0 l 208 0 l 208 718 l 104 718 z "},"í":{"ha":313,"x_min":0,"x_max":0,"o":"m 115 800 l 196 800 l 393 975 l 283 1000 z m 104 0 l 208 0 l 208 718 l 104 718 z "},"î":{"ha":313,"x_min":0,"x_max":0,"o":"m -31 800 l 49 800 l 157 919 l 267 800 l 347 800 l 206 990 l 108 990 z m 104 0 l 208 0 l 208 718 l 104 718 z "},"ï":{"ha":313,"x_min":0,"x_max":0,"o":"m 24 829 b 88 893 58 829 88 858 b 24 957 88 926 58 957 b -40 893 -12 957 -40 926 b 24 829 -40 858 -12 829 z m 290 829 b 354 893 325 829 354 858 b 290 957 354 926 325 957 b 226 893 254 957 226 926 b 290 829 226 858 254 829 z m 104 0 l 208 0 l 208 718 l 104 718 z "},"ì":{"ha":313,"x_min":0,"x_max":0,"o":"m 118 800 l 199 800 l 31 1000 l -79 975 z m 104 0 l 208 0 l 208 718 l 104 718 z "},"ī":{"ha":313,"x_min":0,"x_max":0,"o":"m -58 825 l 372 825 l 372 901 l -58 901 z m 104 0 l 208 0 l 208 718 l 104 718 z "},"į":{"ha":313,"x_min":0,"x_max":0,"o":"m 157 829 b 221 893 192 829 221 858 b 157 957 221 926 192 957 b 93 893 121 957 93 926 b 157 829 93 858 121 829 z m 222 -132 b 157 -158 208 -147 186 -158 b 76 -79 106 -158 76 -128 b 157 0 76 -33 110 0 l 208 0 l 208 718 l 104 718 l 104 17 l 72 26 b -1 -92 32 10 -1 -37 b 150 -240 -1 -185 61 -240 b 267 -200 194 -240 235 -226 z "},"j":{"ha":313,"x_min":0,"x_max":0,"o":"m 157 849 b 225 918 194 849 225 881 b 157 986 225 954 194 986 b 88 918 118 986 88 954 b 157 849 88 881 118 849 z m 33 -247 b 208 -64 136 -247 208 -171 l 208 718 l 104 718 l 104 -64 b 26 -154 104 -117 72 -154 b -62 -139 -3 -154 -40 -147 l -79 -225 b 33 -247 -51 -237 -6 -247 z "},"ȷ":{"ha":313,"x_min":0,"x_max":0,"o":"m 33 -247 b 208 -64 136 -247 208 -171 l 208 718 l 104 718 l 104 -64 b 26 -154 104 -117 72 -154 b -62 -139 -3 -154 -40 -147 l -79 -225 b 33 -247 -51 -237 -6 -247 z "},"k":{"ha":754,"x_min":0,"x_max":0,"o":"m 735 718 l 601 718 l 208 321 l 208 971 l 104 971 l 104 0 l 208 0 l 208 190 l 338 318 l 586 0 l 717 0 l 411 389 z "},"ķ":{"ha":754,"x_min":0,"x_max":0,"o":"m 735 718 l 601 718 l 208 321 l 208 971 l 104 971 l 104 0 l 208 0 l 208 190 l 338 318 l 586 0 l 717 0 l 411 389 z m 383 -114 b 319 -176 347 -114 319 -143 b 382 -240 319 -211 347 -240 b 321 -350 374 -278 353 -314 l 365 -382 b 456 -208 435 -293 456 -254 b 383 -114 456 -153 428 -114 z "},"l":{"ha":315,"x_min":0,"x_max":0,"o":"m 106 0 l 210 0 l 210 971 l 106 971 z "},"ĺ":{"ha":315,"x_min":0,"x_max":0,"o":"m 118 1053 l 199 1053 l 396 1228 l 286 1253 z m 106 0 l 210 0 l 210 971 l 106 971 z "},"ľ":{"ha":315,"x_min":0,"x_max":0,"o":"m 106 0 l 210 0 l 210 971 l 106 971 z m 360 703 b 450 876 429 792 450 831 b 378 971 450 932 422 971 b 314 908 342 971 314 942 b 376 844 314 874 342 844 b 315 735 368 807 347 771 z "},"ł":{"ha":426,"x_min":0,"x_max":0,"o":"m 375 596 l 261 538 l 261 971 l 157 971 l 157 483 l 51 429 l 51 325 l 157 379 l 157 0 l 261 0 l 261 433 l 375 492 z "},"m":{"ha":1243,"x_min":0,"x_max":0,"o":"m 882 735 b 650 582 774 735 679 675 b 418 735 611 675 526 735 b 210 613 324 735 246 688 l 210 718 l 106 718 l 106 0 l 210 0 l 210 457 b 404 642 210 565 290 642 b 569 443 501 642 569 560 l 569 0 l 674 0 l 674 457 b 868 642 674 565 754 642 b 1033 443 965 642 1033 560 l 1033 0 l 1138 0 l 1138 457 b 882 735 1138 619 1032 735 z "},"n":{"ha":822,"x_min":0,"x_max":0,"o":"m 447 735 b 211 603 346 735 253 679 l 211 718 l 107 718 l 107 0 l 211 0 l 211 457 b 433 642 211 557 313 642 b 613 443 539 642 613 560 l 613 0 l 717 0 l 717 457 b 447 735 717 619 606 735 z "},"ń":{"ha":822,"x_min":0,"x_max":0,"o":"m 601 975 l 492 1000 l 324 800 l 404 800 z m 447 735 b 211 603 346 735 253 679 l 211 718 l 107 718 l 107 0 l 211 0 l 211 457 b 433 642 211 557 313 642 b 613 443 539 642 613 560 l 613 0 l 717 0 l 717 457 b 447 735 717 619 606 735 z "},"ň":{"ha":822,"x_min":0,"x_max":0,"o":"m 483 800 l 625 990 l 544 990 l 435 871 l 326 990 l 247 990 l 386 800 z m 447 735 b 211 603 346 735 253 679 l 211 718 l 107 718 l 107 0 l 211 0 l 211 457 b 433 642 211 557 313 642 b 613 443 539 642 613 560 l 613 0 l 717 0 l 717 457 b 447 735 717 619 606 735 z "},"ņ":{"ha":822,"x_min":0,"x_max":0,"o":"m 447 735 b 211 603 346 735 253 679 l 211 718 l 107 718 l 107 0 l 211 0 l 211 457 b 433 642 211 557 313 642 b 613 443 539 642 613 560 l 613 0 l 717 0 l 717 457 b 447 735 717 619 606 735 z m 435 -114 b 371 -176 399 -114 371 -143 b 433 -240 371 -211 399 -240 b 372 -350 425 -278 404 -314 l 417 -382 b 507 -208 486 -293 507 -254 b 435 -114 507 -153 479 -114 z "},"ñ":{"ha":822,"x_min":0,"x_max":0,"o":"m 344 890 b 524 799 401 890 442 799 b 657 964 600 799 643 858 l 593 974 b 524 879 582 907 560 879 b 344 971 467 879 426 971 b 211 806 268 971 225 911 l 275 796 b 344 890 286 863 308 890 z m 447 735 b 211 603 346 735 253 679 l 211 718 l 107 718 l 107 0 l 211 0 l 211 457 b 433 642 211 557 313 642 b 613 443 539 642 613 560 l 613 0 l 717 0 l 717 457 b 447 735 717 619 606 735 z "},"o":{"ha":876,"x_min":0,"x_max":0,"o":"m 439 -17 b 810 360 640 -17 810 156 b 439 735 810 564 640 735 b 67 360 238 735 67 564 b 439 -17 67 156 238 -17 z m 439 76 b 176 360 296 76 176 206 b 439 642 176 513 296 642 b 700 360 581 642 700 513 b 439 76 700 206 581 76 z "},"ó":{"ha":876,"x_min":0,"x_max":0,"o":"m 328 800 l 408 800 l 606 975 l 496 1000 z m 439 -17 b 810 360 640 -17 810 156 b 439 735 810 564 640 735 b 67 360 238 735 67 564 b 439 -17 67 156 238 -17 z m 439 76 b 176 360 296 76 176 206 b 439 642 176 513 296 642 b 700 360 581 642 700 513 b 439 76 700 206 581 76 z "},"ô":{"ha":876,"x_min":0,"x_max":0,"o":"m 251 800 l 331 800 l 439 919 l 549 800 l 629 800 l 488 990 l 390 990 z m 439 -17 b 810 360 640 -17 810 156 b 439 735 810 564 640 735 b 67 360 238 735 67 564 b 439 -17 67 156 238 -17 z m 439 76 b 176 360 296 76 176 206 b 439 642 176 513 296 642 b 700 360 581 642 700 513 b 439 76 700 206 581 76 z "},"ö":{"ha":876,"x_min":0,"x_max":0,"o":"m 306 829 b 369 893 340 829 369 858 b 306 957 369 926 340 957 b 242 893 269 957 242 926 b 306 829 242 858 269 829 z m 572 829 b 636 893 607 829 636 858 b 572 957 636 926 607 957 b 508 893 536 957 508 926 b 572 829 508 858 536 829 z m 439 -17 b 810 360 640 -17 810 156 b 439 735 810 564 640 735 b 67 360 238 735 67 564 b 439 -17 67 156 238 -17 z m 439 76 b 176 360 296 76 176 206 b 439 642 176 513 296 642 b 700 360 581 642 700 513 b 439 76 700 206 581 76 z "},"ò":{"ha":876,"x_min":0,"x_max":0,"o":"m 456 800 l 536 800 l 368 1000 l 258 975 z m 439 -17 b 810 360 640 -17 810 156 b 439 735 810 564 640 735 b 67 360 238 735 67 564 b 439 -17 67 156 238 -17 z m 439 76 b 176 360 296 76 176 206 b 439 642 176 513 296 642 b 700 360 581 642 700 513 b 439 76 700 206 581 76 z "},"ő":{"ha":876,"x_min":0,"x_max":0,"o":"m 251 799 l 332 799 l 529 975 l 419 1000 z m 529 799 l 610 799 l 807 972 l 697 997 z m 439 -17 b 810 360 640 -17 810 156 b 439 735 810 564 640 735 b 67 360 238 735 67 564 b 439 -17 67 156 238 -17 z m 439 76 b 176 360 296 76 176 206 b 439 642 176 513 296 642 b 700 360 581 642 700 513 b 439 76 700 206 581 76 z "},"ō":{"ha":876,"x_min":0,"x_max":0,"o":"m 224 825 l 654 825 l 654 901 l 224 901 z m 439 -17 b 810 360 640 -17 810 156 b 439 735 810 564 640 735 b 67 360 238 735 67 564 b 439 -17 67 156 238 -17 z m 439 76 b 176 360 296 76 176 206 b 439 642 176 513 296 642 b 700 360 581 642 700 513 b 439 76 700 206 581 76 z "},"ø":{"ha":876,"x_min":0,"x_max":0,"o":"m 713 610 l 806 718 l 688 718 l 646 669 b 439 735 586 710 515 735 b 67 360 238 735 67 564 b 167 107 67 264 104 174 l 75 0 l 193 0 l 233 47 b 439 -17 293 7 364 -17 b 810 360 640 -17 810 156 b 713 610 810 456 772 543 z m 176 360 b 439 642 176 513 296 642 b 582 594 492 642 540 624 l 233 186 b 176 360 197 233 176 294 z m 439 76 b 297 122 388 76 339 93 l 646 531 b 700 360 679 482 700 424 b 439 76 700 206 581 76 z "},"õ":{"ha":876,"x_min":0,"x_max":0,"o":"m 528 799 b 661 964 604 799 647 858 l 597 974 b 528 879 586 907 564 879 b 349 971 471 879 431 971 b 215 806 272 971 229 911 l 279 796 b 349 890 290 863 313 890 b 528 799 406 890 446 799 z m 439 -17 b 810 360 640 -17 810 156 b 439 735 810 564 640 735 b 67 360 238 735 67 564 b 439 -17 67 156 238 -17 z m 439 76 b 176 360 296 76 176 206 b 439 642 176 513 296 642 b 700 360 581 642 700 513 b 439 76 700 206 581 76 z "},"œ":{"ha":1461,"x_min":0,"x_max":0,"o":"m 1064 76 b 808 319 922 76 824 179 l 1396 319 b 1056 735 1396 571 1272 735 b 753 557 928 735 815 665 b 439 735 686 663 569 735 b 67 360 238 735 67 564 b 439 -17 67 156 238 -17 b 754 164 569 -17 688 57 b 1065 -17 819 53 938 -17 b 1354 94 1165 -17 1292 26 l 1290 163 b 1064 76 1246 114 1149 76 z m 439 76 b 176 360 296 76 176 206 b 439 642 176 513 296 642 b 700 360 581 642 700 513 b 439 76 700 206 581 76 z m 1060 642 b 1293 413 1203 642 1279 542 l 810 413 b 1060 642 829 551 932 642 z "},"p":{"ha":886,"x_min":0,"x_max":0,"o":"m 481 735 b 219 583 365 735 274 678 l 219 718 l 115 718 l 115 -239 l 219 -239 l 219 135 b 481 -17 274 40 365 -17 b 811 360 669 -17 811 139 b 481 735 811 579 669 735 z m 461 76 b 219 360 319 76 219 194 b 461 642 219 525 319 642 b 701 360 601 642 701 525 b 461 76 701 194 601 76 z "},"þ":{"ha":886,"x_min":0,"x_max":0,"o":"m 481 735 b 219 583 365 735 274 678 l 219 971 l 115 971 l 115 -239 l 219 -239 l 219 135 b 481 -17 274 40 365 -17 b 811 360 669 -17 811 139 b 481 735 811 579 669 735 z m 461 76 b 219 360 319 76 219 194 b 461 642 219 525 319 642 b 701 360 601 642 701 525 b 461 76 701 194 601 76 z "},"q":{"ha":886,"x_min":0,"x_max":0,"o":"m 667 718 l 667 583 b 406 735 613 678 521 735 b 75 360 217 735 75 579 b 406 -17 75 139 217 -17 b 667 135 521 -17 613 40 l 667 -239 l 771 -239 l 771 718 z m 425 76 b 185 360 285 76 185 194 b 425 642 185 525 285 642 b 667 360 567 642 667 525 b 425 76 667 194 567 76 z "},"r":{"ha":536,"x_min":0,"x_max":0,"o":"m 219 578 l 219 718 l 115 718 l 115 0 l 219 0 l 219 401 b 497 642 219 542 335 642 l 497 735 b 219 578 365 735 263 674 z "},"ŕ":{"ha":536,"x_min":0,"x_max":0,"o":"m 481 975 l 371 1000 l 203 800 l 283 800 z m 219 578 l 219 718 l 115 718 l 115 0 l 219 0 l 219 401 b 497 642 219 542 335 642 l 497 735 b 219 578 365 735 263 674 z "},"ř":{"ha":536,"x_min":0,"x_max":0,"o":"m 363 800 l 504 990 l 424 990 l 314 871 l 206 990 l 126 990 l 265 800 z m 219 578 l 219 718 l 115 718 l 115 0 l 219 0 l 219 401 b 497 642 219 542 335 642 l 497 735 b 219 578 365 735 263 674 z "},"ŗ":{"ha":536,"x_min":0,"x_max":0,"o":"m 219 578 l 219 718 l 115 718 l 115 0 l 219 0 l 219 401 b 497 642 219 542 335 642 l 497 735 b 219 578 365 735 263 674 z m 219 -114 b 156 -176 183 -114 156 -143 b 218 -240 156 -211 183 -240 b 157 -350 210 -278 189 -314 l 201 -382 b 292 -208 271 -293 292 -254 b 219 -114 292 -153 264 -114 z "},"s":{"ha":689,"x_min":0,"x_max":0,"o":"m 360 -17 b 622 200 508 -17 622 68 b 388 411 622 336 503 375 b 201 536 254 454 201 474 b 349 642 201 606 268 642 b 556 574 413 642 483 619 l 606 654 b 349 735 529 704 438 735 b 97 524 206 735 97 654 b 338 319 97 421 164 369 b 518 189 435 292 518 267 b 360 76 518 121 454 76 b 117 167 281 76 199 107 l 63 90 b 360 -17 149 21 260 -17 z "},"ś":{"ha":689,"x_min":0,"x_max":0,"o":"m 238 800 l 318 800 l 515 975 l 406 1000 z m 360 -17 b 622 200 508 -17 622 68 b 388 411 622 336 503 375 b 201 536 254 454 201 474 b 349 642 201 606 268 642 b 556 574 413 642 483 619 l 606 654 b 349 735 529 704 438 735 b 97 524 206 735 97 654 b 338 319 97 421 164 369 b 518 189 435 292 518 267 b 360 76 518 121 454 76 b 117 167 281 76 199 107 l 63 90 b 360 -17 149 21 260 -17 z "},"š":{"ha":689,"x_min":0,"x_max":0,"o":"m 300 800 l 397 800 l 539 990 l 458 990 l 349 871 l 240 990 l 161 990 z m 360 -17 b 622 200 508 -17 622 68 b 388 411 622 336 503 375 b 201 536 254 454 201 474 b 349 642 201 606 268 642 b 556 574 413 642 483 619 l 606 654 b 349 735 529 704 438 735 b 97 524 206 735 97 654 b 338 319 97 421 164 369 b 518 189 435 292 518 267 b 360 76 518 121 454 76 b 117 167 281 76 199 107 l 63 90 b 360 -17 149 21 260 -17 z "},"ş":{"ha":689,"x_min":0,"x_max":0,"o":"m 622 200 b 388 411 622 336 503 375 b 201 536 254 454 201 474 b 349 642 201 606 268 642 b 556 574 413 642 483 619 l 606 654 b 349 735 529 704 438 735 b 97 524 206 735 97 654 b 338 319 97 421 164 369 b 518 189 435 292 518 267 b 360 76 518 121 454 76 b 117 167 281 76 199 107 l 63 90 b 311 -14 135 32 225 -4 l 278 -93 l 300 -117 b 347 -101 313 -107 331 -101 b 401 -149 385 -101 401 -122 b 332 -201 401 -179 372 -201 b 242 -169 301 -201 269 -192 l 215 -228 b 338 -267 243 -250 289 -267 b 474 -154 414 -267 474 -222 b 378 -62 474 -100 433 -62 b 363 -64 372 -62 368 -62 l 382 -17 b 622 200 519 -8 622 75 z "},"ß":{"ha":800,"x_min":0,"x_max":0,"o":"m 117 0 l 225 0 l 225 713 b 406 883 225 813 300 883 b 586 717 511 883 586 814 b 406 550 586 628 511 550 l 329 550 l 329 451 l 422 451 b 624 275 540 451 624 378 b 422 99 624 172 540 99 l 329 99 l 329 0 l 450 0 b 733 261 615 0 733 108 b 560 507 733 365 669 451 b 696 731 646 557 696 629 b 407 982 696 878 576 982 b 117 731 238 982 117 878 z "},"t":{"ha":514,"x_min":0,"x_max":0,"o":"m 421 106 b 346 76 406 89 378 76 b 268 167 304 76 268 114 l 268 625 l 444 625 l 444 718 l 268 718 l 268 915 l 164 915 l 164 718 l 51 718 l 51 625 l 164 625 l 164 167 b 339 -17 164 60 236 -17 b 472 29 388 -17 435 0 z "},"ť":{"ha":514,"x_min":0,"x_max":0,"o":"m 614 971 b 550 908 578 971 550 942 b 613 844 550 874 578 844 b 551 735 604 807 583 771 l 596 703 b 686 876 665 792 686 831 b 614 971 686 932 658 971 z m 346 76 b 268 167 304 76 268 114 l 268 625 l 444 625 l 444 718 l 268 718 l 268 915 l 164 915 l 164 718 l 51 718 l 51 625 l 164 625 l 164 167 b 339 -17 164 60 236 -17 b 472 29 388 -17 435 0 l 421 106 b 346 76 406 89 378 76 z "},"ţ":{"ha":514,"x_min":0,"x_max":0,"o":"m 375 -62 b 360 -64 369 -62 365 -62 l 382 -12 b 472 29 414 -6 446 8 l 421 106 b 346 76 406 89 378 76 b 268 167 304 76 268 114 l 268 625 l 444 625 l 444 718 l 268 718 l 268 915 l 164 915 l 164 718 l 51 718 l 51 625 l 164 625 l 164 167 b 308 -14 164 71 222 -1 l 275 -93 l 297 -117 b 344 -101 310 -107 328 -101 b 399 -149 382 -101 399 -122 b 329 -201 399 -179 369 -201 b 239 -169 299 -201 267 -192 l 213 -228 b 335 -267 240 -250 286 -267 b 471 -154 411 -267 471 -222 b 375 -62 471 -100 431 -62 z "},"u":{"ha":822,"x_min":0,"x_max":0,"o":"m 611 718 l 611 261 b 389 76 611 161 510 76 b 210 275 283 76 210 158 l 210 718 l 106 718 l 106 261 b 375 -17 106 99 217 -17 b 611 115 476 -17 569 39 l 611 0 l 715 0 l 715 718 z "},"ú":{"ha":822,"x_min":0,"x_max":0,"o":"m 576 975 l 467 1000 l 299 800 l 379 800 z m 611 718 l 611 261 b 389 76 611 161 510 76 b 210 275 283 76 210 158 l 210 718 l 106 718 l 106 261 b 375 -17 106 99 217 -17 b 611 115 476 -17 569 39 l 611 0 l 715 0 l 715 718 z "},"û":{"ha":822,"x_min":0,"x_max":0,"o":"m 410 919 l 519 800 l 600 800 l 458 990 l 361 990 l 222 800 l 301 800 z m 611 718 l 611 261 b 389 76 611 161 510 76 b 210 275 283 76 210 158 l 210 718 l 106 718 l 106 261 b 375 -17 106 99 217 -17 b 611 115 476 -17 569 39 l 611 0 l 715 0 l 715 718 z "},"ü":{"ha":822,"x_min":0,"x_max":0,"o":"m 276 829 b 340 893 311 829 340 858 b 276 957 340 926 311 957 b 213 893 240 957 213 926 b 276 829 213 858 240 829 z m 543 829 b 607 893 578 829 607 858 b 543 957 607 926 578 957 b 479 893 507 957 479 926 b 543 829 479 858 507 829 z m 611 718 l 611 261 b 389 76 611 161 510 76 b 210 275 283 76 210 158 l 210 718 l 106 718 l 106 261 b 375 -17 106 99 217 -17 b 611 115 476 -17 569 39 l 611 0 l 715 0 l 715 718 z "},"ù":{"ha":822,"x_min":0,"x_max":0,"o":"m 507 800 l 339 1000 l 229 975 l 426 800 z m 611 718 l 611 261 b 389 76 611 161 510 76 b 210 275 283 76 210 158 l 210 718 l 106 718 l 106 261 b 375 -17 106 99 217 -17 b 611 115 476 -17 569 39 l 611 0 l 715 0 l 715 718 z "},"ű":{"ha":822,"x_min":0,"x_max":0,"o":"m 493 975 l 383 1000 l 215 799 l 296 799 z m 574 799 l 771 972 l 661 997 l 493 799 z m 611 261 b 389 76 611 161 510 76 b 210 275 283 76 210 158 l 210 718 l 106 718 l 106 261 b 375 -17 106 99 217 -17 b 611 115 476 -17 569 39 l 611 0 l 715 0 l 715 718 l 611 718 z "},"ū":{"ha":822,"x_min":0,"x_max":0,"o":"m 625 901 l 194 901 l 194 825 l 625 825 z m 611 718 l 611 261 b 389 76 611 161 510 76 b 210 275 283 76 210 158 l 210 718 l 106 718 l 106 261 b 375 -17 106 99 217 -17 b 611 115 476 -17 569 39 l 611 0 l 715 0 l 715 718 z "},"ų":{"ha":822,"x_min":0,"x_max":0,"o":"m 781 -132 b 715 -158 767 -147 744 -158 b 635 -79 664 -158 635 -128 b 715 0 635 -33 668 0 l 715 718 l 611 718 l 611 261 b 389 76 611 161 510 76 b 210 275 283 76 210 158 l 210 718 l 106 718 l 106 261 b 375 -17 106 99 217 -17 b 611 115 476 -17 569 39 l 611 15 b 557 -92 581 -6 557 -47 b 708 -240 557 -185 619 -240 b 825 -200 753 -240 793 -226 z "},"ů":{"ha":822,"x_min":0,"x_max":0,"o":"m 410 818 b 553 961 489 818 553 882 b 410 1104 553 1040 489 1104 b 267 961 331 1104 267 1040 b 410 818 267 882 331 818 z m 410 1043 b 492 961 454 1043 492 1006 b 410 879 492 917 454 879 b 328 961 365 879 328 917 b 410 1043 328 1006 365 1043 z m 611 718 l 611 261 b 389 76 611 161 510 76 b 210 275 283 76 210 158 l 210 718 l 106 718 l 106 261 b 375 -17 106 99 217 -17 b 611 115 476 -17 569 39 l 611 0 l 715 0 l 715 718 z "},"v":{"ha":782,"x_min":0,"x_max":0,"o":"m 343 0 l 443 0 l 744 718 l 628 718 l 393 122 l 154 718 l 38 718 z "},"w":{"ha":1157,"x_min":0,"x_max":0,"o":"m 289 0 l 388 0 l 581 574 l 771 0 l 869 0 l 1111 718 l 1000 718 l 821 139 l 625 718 l 535 718 l 339 139 l 160 718 l 49 718 z "},"ẃ":{"ha":1157,"x_min":0,"x_max":0,"o":"m 539 800 l 619 800 l 817 975 l 707 1000 z m 289 0 l 388 0 l 581 574 l 771 0 l 869 0 l 1111 718 l 1000 718 l 821 139 l 625 718 l 535 718 l 339 139 l 160 718 l 49 718 z "},"ŵ":{"ha":1157,"x_min":0,"x_max":0,"o":"m 393 800 l 472 800 l 581 919 l 690 800 l 771 800 l 629 990 l 532 990 z m 289 0 l 388 0 l 581 574 l 771 0 l 869 0 l 1111 718 l 1000 718 l 821 139 l 625 718 l 535 718 l 339 139 l 160 718 l 49 718 z "},"ẅ":{"ha":1157,"x_min":0,"x_max":0,"o":"m 447 829 b 511 893 482 829 511 858 b 447 957 511 926 482 957 b 383 893 411 957 383 926 b 447 829 383 858 411 829 z m 714 829 b 778 893 749 829 778 858 b 714 957 778 926 749 957 b 650 893 678 957 650 926 b 714 829 650 858 678 829 z m 289 0 l 388 0 l 581 574 l 771 0 l 869 0 l 1111 718 l 1000 718 l 821 139 l 625 718 l 535 718 l 339 139 l 160 718 l 49 718 z "},"ẁ":{"ha":1157,"x_min":0,"x_max":0,"o":"m 540 800 l 621 800 l 453 1000 l 343 975 z m 289 0 l 388 0 l 581 574 l 771 0 l 869 0 l 1111 718 l 1000 718 l 821 139 l 625 718 l 535 718 l 339 139 l 160 718 l 49 718 z "},"x":{"ha":765,"x_min":0,"x_max":0,"o":"m 721 0 l 444 367 l 710 718 l 588 718 l 383 447 l 178 718 l 56 718 l 322 367 l 44 0 l 167 0 l 383 286 l 599 0 z "},"y":{"ha":824,"x_min":0,"x_max":0,"o":"m 213 -250 b 431 -81 311 -249 381 -203 l 758 718 l 646 718 l 408 121 l 157 718 l 42 718 l 354 -3 l 313 -92 b 208 -156 285 -140 254 -156 b 124 -137 178 -156 149 -150 l 99 -226 b 213 -250 132 -242 171 -250 z "},"ý":{"ha":824,"x_min":0,"x_max":0,"o":"m 297 800 l 378 800 l 575 975 l 465 1000 z m 213 -250 b 431 -81 311 -249 381 -203 l 758 718 l 646 718 l 408 121 l 157 718 l 42 718 l 354 -3 l 313 -92 b 208 -156 285 -140 254 -156 b 124 -137 178 -156 149 -150 l 99 -226 b 213 -250 132 -242 171 -250 z "},"ŷ":{"ha":824,"x_min":0,"x_max":0,"o":"m 221 800 l 300 800 l 408 919 l 518 800 l 599 800 l 457 990 l 360 990 z m 213 -250 b 431 -81 311 -249 381 -203 l 758 718 l 646 718 l 408 121 l 157 718 l 42 718 l 354 -3 l 313 -92 b 208 -156 285 -140 254 -156 b 124 -137 178 -156 149 -150 l 99 -226 b 213 -250 132 -242 171 -250 z "},"ÿ":{"ha":824,"x_min":0,"x_max":0,"o":"m 275 829 b 339 893 310 829 339 858 b 275 957 339 926 310 957 b 211 893 239 957 211 926 b 275 829 211 858 239 829 z m 542 829 b 606 893 576 829 606 858 b 542 957 606 926 576 957 b 478 893 506 957 478 926 b 542 829 478 858 506 829 z m 213 -250 b 431 -81 311 -249 381 -203 l 758 718 l 646 718 l 408 121 l 157 718 l 42 718 l 354 -3 l 313 -92 b 208 -156 285 -140 254 -156 b 124 -137 178 -156 149 -150 l 99 -226 b 213 -250 132 -242 171 -250 z "},"ỳ":{"ha":824,"x_min":0,"x_max":0,"o":"m 425 800 l 506 800 l 338 1000 l 228 975 z m 213 -250 b 431 -81 311 -249 381 -203 l 758 718 l 646 718 l 408 121 l 157 718 l 42 718 l 354 -3 l 313 -92 b 208 -156 285 -140 254 -156 b 124 -137 178 -156 149 -150 l 99 -226 b 213 -250 132 -242 171 -250 z "},"z":{"ha":714,"x_min":0,"x_max":0,"o":"m 75 0 l 642 0 l 642 99 l 214 99 l 639 636 l 639 718 l 83 718 l 83 619 l 499 619 l 75 82 z "},"ź":{"ha":714,"x_min":0,"x_max":0,"o":"m 256 800 l 336 800 l 533 975 l 424 1000 z m 75 0 l 642 0 l 642 99 l 214 99 l 639 636 l 639 718 l 83 718 l 83 619 l 499 619 l 75 82 z "},"ž":{"ha":714,"x_min":0,"x_max":0,"o":"m 318 800 l 415 800 l 557 990 l 476 990 l 367 871 l 258 990 l 179 990 z m 75 0 l 642 0 l 642 99 l 214 99 l 639 636 l 639 718 l 83 718 l 83 619 l 499 619 l 75 82 z "},"ż":{"ha":714,"x_min":0,"x_max":0,"o":"m 367 829 b 431 893 401 829 431 858 b 367 957 431 926 401 957 b 303 893 331 957 303 926 b 367 829 303 858 331 829 z m 75 0 l 642 0 l 642 99 l 214 99 l 639 636 l 639 718 l 83 718 l 83 619 l 499 619 l 75 82 z "},"*":{"ha":568,"x_min":0,"x_max":0,"o":"m 283 522 b 318 553 303 522 318 536 b 296 726 318 611 303 668 b 435 621 343 692 385 650 b 479 636 449 613 469 619 b 469 681 489 653 483 672 b 308 749 419 710 363 725 b 469 817 363 772 419 788 b 479 861 483 825 489 844 b 435 876 469 878 449 885 b 296 771 385 847 343 806 b 318 944 303 829 318 886 b 283 975 318 961 303 975 b 249 944 264 975 249 961 b 271 771 249 886 264 829 b 132 876 224 806 182 847 b 88 861 118 885 97 878 b 97 817 78 844 83 825 b 258 749 147 788 204 772 b 97 681 204 725 147 710 b 88 636 83 672 78 653 b 132 621 97 619 118 613 b 271 726 182 650 224 692 b 249 553 264 668 249 611 b 283 522 249 536 264 522 z "},"\\":{"ha":576,"x_min":0,"x_max":0,"o":"m 481 -103 l 599 -103 l 111 1032 l -7 1032 z "},":":{"ha":351,"x_min":0,"x_max":0,"o":"m 178 560 b 251 636 218 560 251 594 b 178 710 251 675 218 710 b 101 636 135 710 101 675 b 178 560 101 594 135 560 z m 178 -17 b 251 60 218 -17 251 18 b 178 133 251 99 218 133 b 101 60 135 133 101 99 b 178 -17 101 18 135 -17 z "},",":{"ha":367,"x_min":0,"x_max":0,"o":"m 161 -185 b 268 22 244 -81 268 -33 b 183 133 268 86 236 133 b 107 60 139 133 107 99 b 182 -17 107 18 140 -17 b 110 -146 171 -60 147 -103 z "},"…":{"ha":908,"x_min":0,"x_max":0,"o":"m 178 -17 b 251 60 218 -17 251 18 b 178 133 251 99 218 133 b 101 60 135 133 101 99 b 178 -17 101 18 135 -17 z m 456 -17 b 529 60 496 -17 529 18 b 456 133 529 99 496 133 b 379 60 413 133 379 99 b 456 -17 379 18 413 -17 z m 733 -17 b 807 60 774 -17 807 18 b 733 133 807 99 774 133 b 657 60 690 133 657 99 b 733 -17 657 18 690 -17 z "},"!":{"ha":379,"x_min":0,"x_max":0,"o":"m 156 268 l 229 268 l 257 954 l 129 954 z m 192 -17 b 265 60 232 -17 265 18 b 192 133 265 99 232 133 b 115 60 149 133 115 99 b 192 -17 115 18 149 -17 z "},"¡":{"ha":379,"x_min":0,"x_max":0,"o":"m 188 735 b 114 658 147 735 114 700 b 188 585 114 619 147 585 b 264 658 231 585 264 619 b 188 735 264 700 231 735 z m 224 450 l 150 450 l 122 -236 l 250 -236 z "},"#":{"ha":936,"x_min":0,"x_max":0,"o":"m 860 619 l 881 704 l 718 704 l 781 954 l 689 954 l 626 704 l 418 704 l 481 954 l 389 954 l 326 704 l 167 704 l 146 619 l 304 619 l 232 333 l 75 333 l 54 249 l 211 249 l 149 0 l 240 0 l 303 249 l 511 249 l 449 0 l 540 0 l 603 249 l 767 249 l 788 333 l 624 333 l 696 619 z m 532 333 l 324 333 l 396 619 l 604 619 z "},".":{"ha":351,"x_min":0,"x_max":0,"o":"m 178 -17 b 251 60 218 -17 251 18 b 178 133 251 99 218 133 b 101 60 135 133 101 99 b 178 -17 101 18 135 -17 z "},"?":{"ha":704,"x_min":0,"x_max":0,"o":"m 256 268 l 365 268 l 365 446 b 643 717 528 481 643 593 b 351 971 643 858 528 971 b 38 811 211 971 111 903 l 108 740 b 346 872 169 815 242 872 b 533 707 463 872 533 792 b 256 528 533 617 418 542 z m 311 -17 b 385 60 351 -17 385 18 b 311 133 385 99 351 133 b 235 60 268 133 235 99 b 311 -17 235 18 268 -17 z "},"¿":{"ha":704,"x_min":0,"x_max":0,"o":"m 393 735 b 319 658 353 735 319 700 b 393 585 319 619 353 585 b 469 658 436 585 469 619 b 393 735 469 700 436 735 z m 449 450 l 339 450 l 339 272 b 61 1 176 238 61 125 b 353 -253 61 -140 176 -253 b 667 -93 493 -253 593 -185 l 596 -22 b 358 -154 535 -97 463 -154 b 171 11 242 -154 171 -74 b 449 190 171 101 286 176 z "},"\"":{"ha":575,"x_min":0,"x_max":0,"o":"m 132 596 l 193 596 b 226 874 204 676 226 804 b 163 938 226 908 197 938 b 99 874 128 938 99 908 b 132 596 99 804 121 676 z m 382 596 l 443 596 b 476 874 454 676 476 804 b 413 938 476 908 447 938 b 349 874 378 938 349 908 b 382 596 349 804 371 676 z "},"'":{"ha":325,"x_min":0,"x_max":0,"o":"m 132 596 l 193 596 b 226 874 204 676 226 804 b 163 938 226 908 197 938 b 99 874 128 938 99 908 b 132 596 99 804 121 676 z "},";":{"ha":367,"x_min":0,"x_max":0,"o":"m 183 560 b 257 636 224 560 257 594 b 183 710 257 675 224 710 b 107 636 140 710 107 675 b 183 560 107 594 140 560 z m 161 -185 b 268 22 244 -81 268 -33 b 183 133 268 86 236 133 b 107 60 139 133 107 99 b 182 -17 107 18 140 -17 b 110 -146 171 -60 147 -103 z "},"/":{"ha":576,"x_min":0,"x_max":0,"o":"m -22 -103 l 96 -103 l 583 1032 l 465 1032 z "},"_":{"ha":822,"x_min":0,"x_max":0,"o":"m -3 -197 l 825 -197 l 825 -104 l -3 -104 z "},"{":{"ha":547,"x_min":0,"x_max":0,"o":"m 475 -231 l 483 -157 b 286 11 321 -132 286 -101 l 288 210 b 183 369 288 297 253 344 b 288 528 251 393 288 440 l 286 728 b 483 894 286 838 318 869 l 475 968 b 196 733 261 944 196 878 l 196 539 b 60 407 196 447 160 407 l 60 331 b 196 200 158 331 196 293 l 196 4 b 475 -231 196 -139 260 -207 z "},"}":{"ha":547,"x_min":0,"x_max":0,"o":"m 72 -231 b 351 4 288 -207 351 -139 l 351 200 b 488 331 351 293 389 331 l 488 407 b 351 539 388 407 351 447 l 351 733 b 72 968 351 878 286 944 l 64 894 b 261 728 229 869 261 838 l 260 528 b 364 369 260 440 296 393 b 260 210 294 344 260 297 l 261 11 b 64 -157 261 -101 226 -132 z "},"[":{"ha":508,"x_min":0,"x_max":0,"o":"m 113 -160 l 440 -160 l 440 -81 l 204 -81 l 204 940 l 440 940 l 440 1019 l 113 1019 z "},"]":{"ha":508,"x_min":0,"x_max":0,"o":"m 68 -160 l 396 -160 l 396 1019 l 68 1019 l 68 940 l 304 940 l 304 -81 l 68 -81 z "},"(":{"ha":496,"x_min":0,"x_max":0,"o":"m 376 -236 l 432 -176 b 197 368 281 -22 197 142 b 432 914 197 596 281 758 l 376 972 b 86 368 190 817 86 608 b 376 -236 86 129 190 -81 z "},")":{"ha":496,"x_min":0,"x_max":0,"o":"m 119 -236 b 410 368 306 -81 410 129 b 119 972 410 608 306 817 l 64 914 b 299 368 215 758 299 596 b 64 -176 299 142 215 -22 z "},"—":{"ha":1225,"x_min":0,"x_max":0,"o":"m 78 328 l 1147 328 l 1147 426 l 78 426 z "},"–":{"ha":801,"x_min":0,"x_max":0,"o":"m 78 328 l 724 328 l 724 426 l 78 426 z "},"-":{"ha":515,"x_min":0,"x_max":0,"o":"m 78 326 l 438 326 l 438 428 l 78 428 z "},"“":{"ha":644,"x_min":0,"x_max":0,"o":"m 206 935 b 99 728 122 831 99 783 b 183 617 99 664 131 617 b 260 690 228 617 260 651 b 185 767 260 732 226 767 b 257 896 196 810 219 853 z m 483 935 b 376 728 400 831 376 783 b 461 617 376 664 408 617 b 538 690 506 617 538 651 b 463 767 538 732 504 767 b 535 896 474 810 497 853 z "},"”":{"ha":644,"x_min":0,"x_max":0,"o":"m 161 619 b 268 826 244 724 268 771 b 183 938 268 890 236 938 b 107 864 139 938 107 903 b 182 788 107 822 140 788 b 110 658 171 744 147 701 z m 439 619 b 546 826 522 724 546 771 b 461 938 546 890 514 938 b 385 864 417 938 385 903 b 460 788 385 822 418 788 b 388 658 449 744 425 701 z "},"‘":{"ha":367,"x_min":0,"x_max":0,"o":"m 206 935 b 99 728 122 831 99 783 b 183 617 99 664 131 617 b 260 690 228 617 260 651 b 185 767 260 732 226 767 b 257 896 196 810 219 853 z "},"’":{"ha":367,"x_min":0,"x_max":0,"o":"m 161 619 b 268 826 244 724 268 771 b 183 938 268 890 236 938 b 107 864 139 938 107 903 b 182 788 107 822 140 788 b 110 658 171 744 147 701 z "}," ":{"ha":403,"x_min":0,"x_max":0,"o":""},"¢":{"ha":753,"x_min":0,"x_max":0,"o":"m 699 93 l 626 164 b 475 79 586 119 533 89 l 475 639 b 622 558 532 631 583 601 l 694 629 b 475 733 635 686 558 724 l 475 818 l 367 818 l 367 728 b 67 360 199 693 67 539 b 367 -10 67 181 199 26 l 367 -103 l 475 -103 l 475 -15 b 699 93 561 -6 639 33 z m 176 360 b 367 631 176 486 258 596 l 367 88 b 176 360 258 122 176 232 z "},"$":{"ha":851,"x_min":0,"x_max":0,"o":"m 776 260 b 475 533 776 425 651 490 l 475 867 b 685 751 551 853 622 811 l 751 836 b 475 969 676 906 588 956 l 475 1054 l 367 1054 l 367 969 b 97 700 210 950 97 839 b 367 442 97 547 200 485 l 367 90 b 132 221 271 108 196 157 l 64 136 b 367 -11 144 57 244 4 l 367 -103 l 475 -103 l 475 -14 b 776 260 675 -1 776 117 z m 207 708 b 367 869 207 785 272 853 l 367 563 b 207 708 264 593 207 632 z m 475 85 l 475 414 b 667 250 600 379 667 338 b 475 85 667 169 601 94 z "},"€":{"ha":944,"x_min":0,"x_max":0,"o":"m 561 83 b 211 328 407 83 269 186 l 656 328 l 656 421 l 186 421 b 182 478 183 439 182 458 b 190 560 182 506 185 533 l 656 560 l 656 653 l 224 653 b 561 871 286 781 415 871 b 831 750 665 871 761 824 l 904 825 b 561 971 815 915 693 971 b 106 653 357 971 178 838 l -33 653 l -33 560 l 79 560 b 72 478 75 533 72 506 b 75 421 72 458 74 439 l -33 421 l -33 328 l 96 328 b 561 -17 161 131 349 -17 b 904 129 693 -17 815 40 l 831 204 b 561 83 761 131 665 83 z "},"£":{"ha":860,"x_min":0,"x_max":0,"o":"m 275 103 l 275 363 l 556 363 l 556 456 l 275 456 l 275 643 b 468 872 275 778 356 872 b 682 735 569 872 658 815 l 761 813 b 468 971 717 906 596 971 b 167 643 292 971 167 835 l 167 456 l 81 456 l 81 363 l 167 363 l 167 103 l 76 53 l 76 0 l 796 0 l 796 103 z "},"¥":{"ha":932,"x_min":0,"x_max":0,"o":"m 907 954 l 776 954 l 467 492 l 160 954 l 25 954 l 364 457 l 122 457 l 122 364 l 410 364 l 410 253 l 122 253 l 122 160 l 410 160 l 410 0 l 524 0 l 524 160 l 811 160 l 811 253 l 524 253 l 524 364 l 811 364 l 811 457 l 569 457 z "},"+":{"ha":824,"x_min":0,"x_max":0,"o":"m 731 515 l 464 515 l 464 783 l 360 783 l 360 515 l 93 515 l 93 413 l 360 413 l 360 146 l 464 146 l 464 413 l 731 413 z "},"−":{"ha":824,"x_min":0,"x_max":0,"o":"m 93 413 l 731 413 l 731 515 l 93 515 z "},"×":{"ha":751,"x_min":0,"x_max":0,"o":"m 638 653 l 565 726 l 376 538 l 188 726 l 114 653 l 303 464 l 114 275 l 188 203 l 376 392 l 564 203 l 638 276 l 450 465 z "},"÷":{"ha":824,"x_min":0,"x_max":0,"o":"m 414 614 b 488 690 454 614 488 649 b 414 764 488 729 454 764 b 338 690 371 764 338 729 b 414 614 338 649 371 614 z m 93 413 l 731 413 l 731 515 l 93 515 z m 414 164 b 488 240 454 164 488 199 b 414 314 488 279 454 314 b 338 240 371 314 338 279 b 414 164 338 199 371 164 z "},"=":{"ha":824,"x_min":0,"x_max":0,"o":"m 93 565 l 731 565 l 731 668 l 93 668 z m 93 260 l 731 260 l 731 363 l 93 363 z "},">":{"ha":814,"x_min":0,"x_max":0,"o":"m 106 122 l 738 436 l 738 518 l 106 832 l 106 735 l 635 478 l 106 221 z "},"<":{"ha":814,"x_min":0,"x_max":0,"o":"m 708 122 l 708 221 l 179 478 l 708 735 l 708 832 l 76 518 l 76 436 z "},"~":{"ha":618,"x_min":0,"x_max":0,"o":"m 399 417 b 532 582 475 417 518 476 l 468 592 b 399 497 457 525 435 497 b 219 589 342 497 301 589 b 86 424 143 589 100 529 l 150 414 b 219 508 161 481 183 508 b 399 417 276 508 317 417 z "},"%":{"ha":1106,"x_min":0,"x_max":0,"o":"m 286 485 b 508 724 417 485 508 589 b 288 963 508 856 419 963 b 65 721 158 963 65 858 b 286 485 65 592 154 485 z m 182 0 l 274 0 l 926 954 l 835 954 z m 288 560 b 153 722 211 560 153 631 b 286 888 153 818 208 888 b 421 722 364 888 421 817 b 288 560 421 629 365 560 z m 817 -14 b 1039 226 946 -14 1039 90 b 818 464 1039 356 950 464 b 596 225 686 464 596 356 b 817 -14 596 89 689 -14 z m 818 61 b 683 226 739 61 683 132 b 817 389 683 317 738 389 b 951 225 894 389 951 318 b 818 61 951 131 897 61 z "},"‰":{"ha":1624,"x_min":0,"x_max":0,"o":"m 286 485 b 508 724 417 485 508 589 b 288 963 508 856 419 963 b 65 721 158 963 65 858 b 286 485 65 592 154 485 z m 182 0 l 274 0 l 926 954 l 835 954 z m 288 560 b 153 722 211 560 153 631 b 286 888 153 818 208 888 b 421 722 364 888 421 817 b 288 560 421 629 365 560 z m 817 -14 b 1039 226 946 -14 1039 90 b 818 464 1039 356 950 464 b 596 225 686 464 596 356 b 817 -14 596 89 689 -14 z m 1335 -14 b 1557 226 1464 -14 1557 90 b 1336 464 1557 356 1468 464 b 1114 225 1204 464 1114 356 b 1335 -14 1114 89 1207 -14 z m 818 61 b 683 226 739 61 683 132 b 817 389 683 317 738 389 b 951 225 894 389 951 318 b 818 61 951 131 897 61 z m 1336 61 b 1201 226 1257 61 1201 132 b 1335 389 1201 317 1256 389 b 1469 225 1413 389 1469 318 b 1336 61 1469 131 1415 61 z "},"@":{"ha":1224,"x_min":0,"x_max":0,"o":"m 592 -161 b 919 -65 718 -161 813 -133 l 894 -28 b 594 -112 793 -89 708 -112 b 114 361 333 -112 114 104 b 639 888 114 647 354 888 b 1113 443 896 888 1113 685 b 940 174 1113 249 1017 174 b 849 265 885 174 849 207 b 922 668 849 300 879 447 l 829 675 l 811 583 b 621 696 781 643 719 696 b 297 349 460 696 297 543 b 528 108 297 204 394 108 b 753 228 624 108 701 161 b 913 108 768 154 826 108 b 1163 443 1035 108 1163 217 b 642 938 1163 711 925 938 b 61 360 326 938 61 674 b 592 -161 61 76 304 -161 z m 553 190 b 397 354 458 190 397 256 b 633 614 397 493 506 614 b 781 432 743 614 792 543 b 553 190 767 297 683 190 z "},"&":{"ha":931,"x_min":0,"x_max":0,"o":"m 872 36 l 714 197 b 846 439 763 267 806 350 l 756 479 b 647 265 726 400 689 328 b 429 504 561 356 494 428 b 663 744 565 558 663 618 b 438 965 663 864 565 965 b 194 742 294 965 194 867 b 275 532 194 671 221 607 b 57 253 128 467 57 376 b 357 -17 57 86 188 -17 b 649 117 475 -17 569 35 l 774 -10 z m 438 872 b 558 742 508 872 558 815 b 374 571 558 663 501 621 b 299 742 322 636 299 692 b 438 872 299 824 358 872 z m 361 76 b 161 256 253 76 161 143 b 329 463 161 344 225 414 b 582 185 396 382 468 303 b 361 76 518 117 444 76 z "},"|":{"ha":386,"x_min":0,"x_max":0,"o":"m 151 -103 l 235 -103 l 235 1032 l 151 1032 z "},"^":{"ha":681,"x_min":0,"x_max":0,"o":"m 75 574 l 164 574 l 340 878 l 515 574 l 606 574 l 382 954 l 300 954 z "},"̦":{"ha":0,"x_min":0,"x_max":0,"o":"m -197 -382 b -107 -208 -128 -293 -107 -254 b -179 -114 -107 -153 -135 -114 b -243 -176 -215 -114 -243 -143 b -181 -240 -243 -211 -215 -240 b -242 -350 -189 -278 -210 -314 z "},"´":{"ha":453,"x_min":0,"x_max":0,"o":"m 88 800 l 168 800 l 365 975 l 256 1000 z "},"˘":{"ha":581,"x_min":0,"x_max":0,"o":"m 290 818 b 493 901 364 818 438 846 l 428 967 b 290 908 390 931 339 908 b 153 967 242 908 190 931 l 88 901 b 290 818 144 846 217 818 z "},"ˇ":{"ha":553,"x_min":0,"x_max":0,"o":"m 226 800 l 324 800 l 465 990 l 385 990 l 275 871 l 167 990 l 88 990 z "},"¸":{"ha":433,"x_min":0,"x_max":0,"o":"m 250 -62 b 235 -64 244 -62 240 -62 l 268 15 l 196 15 l 150 -93 l 172 -117 b 219 -101 185 -107 203 -101 b 274 -149 257 -101 274 -122 b 204 -201 274 -179 244 -201 b 114 -169 174 -201 142 -192 l 88 -228 b 210 -267 115 -250 161 -267 b 346 -154 286 -267 346 -222 b 250 -62 346 -100 306 -62 z "},"ˆ":{"ha":553,"x_min":0,"x_max":0,"o":"m 88 800 l 167 800 l 275 919 l 385 800 l 465 800 l 324 990 l 226 990 z "},"¨":{"ha":569,"x_min":0,"x_max":0,"o":"m 151 829 b 215 893 186 829 215 858 b 151 957 215 926 186 957 b 88 893 115 957 88 926 b 151 829 88 858 115 829 z m 418 829 b 482 893 453 829 482 858 b 418 957 482 926 453 957 b 354 893 382 957 354 926 b 418 829 354 858 382 829 z "},"˙":{"ha":303,"x_min":0,"x_max":0,"o":"m 151 829 b 215 893 186 829 215 858 b 151 957 215 926 186 957 b 88 893 115 957 88 926 b 151 829 88 858 115 829 z "},"`":{"ha":453,"x_min":0,"x_max":0,"o":"m 285 800 l 365 800 l 197 1000 l 88 975 z "},"˝":{"ha":732,"x_min":0,"x_max":0,"o":"m 88 799 l 168 799 l 365 975 l 256 1000 z m 365 799 l 446 799 l 643 972 l 533 997 z "},"¯":{"ha":606,"x_min":0,"x_max":0,"o":"m 88 825 l 518 825 l 518 901 l 88 901 z "},"˛":{"ha":443,"x_min":0,"x_max":0,"o":"m 239 -240 b 356 -200 283 -240 324 -226 l 311 -132 b 246 -158 297 -147 275 -158 b 165 -79 194 -158 165 -128 b 246 0 165 -33 199 0 l 161 26 b 88 -92 121 10 88 -37 b 239 -240 88 -185 150 -240 z "},"˚":{"ha":461,"x_min":0,"x_max":0,"o":"m 231 818 b 374 961 310 818 374 882 b 231 1104 374 1040 310 1104 b 88 961 151 1104 88 1040 b 231 818 88 882 151 818 z m 231 879 b 149 961 186 879 149 917 b 231 1043 149 1006 186 1043 b 313 961 275 1043 313 1006 b 231 879 313 917 275 879 z "},"˜":{"ha":626,"x_min":0,"x_max":0,"o":"m 403 799 b 536 964 479 799 522 858 l 472 974 b 403 879 461 907 439 879 b 224 971 346 879 306 971 b 90 806 147 971 104 911 l 154 796 b 224 890 165 863 188 890 b 403 799 281 890 321 799 z "}}}
